<mxfile host="app.diagrams.net" agent="Mozilla/5.0 (Macintosh; Intel Mac OS X 10_15_7) AppleWebKit/605.1.15 (KHTML, like Gecko) Version/17.6 Safari/605.1.15" version="27.1.1">
  <diagram name="Page-1" id="32d2Zk5MVv65oNQ7Rb09">
    <mxGraphModel dx="1084" dy="656" grid="1" gridSize="10" guides="1" tooltips="1" connect="1" arrows="1" fold="1" page="1" pageScale="1" pageWidth="827" pageHeight="1169" math="0" shadow="0">
      <root>
        <mxCell id="0" />
        <mxCell id="1" parent="0" />
        <mxCell id="lCpcC6EXvAtzIv-ZnMlg-191" style="edgeStyle=orthogonalEdgeStyle;rounded=0;orthogonalLoop=1;jettySize=auto;html=1;entryX=0.5;entryY=0;entryDx=0;entryDy=0;" edge="1" parent="1" source="lCpcC6EXvAtzIv-ZnMlg-13" target="lCpcC6EXvAtzIv-ZnMlg-189">
          <mxGeometry relative="1" as="geometry" />
        </mxCell>
        <mxCell id="lCpcC6EXvAtzIv-ZnMlg-192" value="user, true" style="edgeLabel;html=1;align=center;verticalAlign=middle;resizable=0;points=[];" vertex="1" connectable="0" parent="lCpcC6EXvAtzIv-ZnMlg-191">
          <mxGeometry x="-0.1333" y="1" relative="1" as="geometry">
            <mxPoint as="offset" />
          </mxGeometry>
        </mxCell>
        <mxCell id="lCpcC6EXvAtzIv-ZnMlg-13" value="" style="verticalLabelPosition=bottom;verticalAlign=top;html=1;shape=process;whiteSpace=wrap;rounded=1;size=0.14;arcSize=6;" vertex="1" parent="1">
          <mxGeometry x="160" y="740" width="100" height="60" as="geometry" />
        </mxCell>
        <mxCell id="lCpcC6EXvAtzIv-ZnMlg-12" value="" style="verticalLabelPosition=bottom;verticalAlign=top;html=1;shape=process;whiteSpace=wrap;rounded=1;size=0.14;arcSize=6;" vertex="1" parent="1">
          <mxGeometry x="270" y="690" width="100" height="60" as="geometry" />
        </mxCell>
        <mxCell id="MsV3GpRqJ0v0YOtoz0TT-17" style="edgeStyle=orthogonalEdgeStyle;rounded=0;orthogonalLoop=1;jettySize=auto;html=1;" parent="1" source="MsV3GpRqJ0v0YOtoz0TT-1" target="MsV3GpRqJ0v0YOtoz0TT-16" edge="1">
          <mxGeometry relative="1" as="geometry" />
        </mxCell>
        <mxCell id="MsV3GpRqJ0v0YOtoz0TT-1" value="Start" style="strokeWidth=2;html=1;shape=mxgraph.flowchart.start_1;whiteSpace=wrap;" parent="1" vertex="1">
          <mxGeometry x="160" y="60" width="100" height="60" as="geometry" />
        </mxCell>
        <mxCell id="MsV3GpRqJ0v0YOtoz0TT-2" value="Main Flowchart" style="text;strokeColor=none;align=center;fillColor=none;html=1;verticalAlign=middle;whiteSpace=wrap;rounded=0;" parent="1" vertex="1">
          <mxGeometry x="180" y="10" width="60" height="30" as="geometry" />
        </mxCell>
        <mxCell id="MsV3GpRqJ0v0YOtoz0TT-8" style="edgeStyle=orthogonalEdgeStyle;rounded=0;orthogonalLoop=1;jettySize=auto;html=1;exitX=0.5;exitY=1;exitDx=0;exitDy=0;exitPerimeter=0;entryX=0.5;entryY=0;entryDx=0;entryDy=0;" parent="1" source="MsV3GpRqJ0v0YOtoz0TT-3" target="lCpcC6EXvAtzIv-ZnMlg-7" edge="1">
          <mxGeometry relative="1" as="geometry">
            <mxPoint x="210" y="430" as="targetPoint" />
          </mxGeometry>
        </mxCell>
        <mxCell id="MsV3GpRqJ0v0YOtoz0TT-3" value="&lt;div&gt;Pilih opsi:&lt;/div&gt;&lt;div&gt;&amp;nbsp; 1. Register&lt;/div&gt;&lt;div&gt;2. Login&lt;/div&gt;&lt;div&gt;0. Keluar&lt;/div&gt;" style="strokeWidth=2;html=1;shape=mxgraph.flowchart.display;whiteSpace=wrap;align=center;" parent="1" vertex="1">
          <mxGeometry x="145" y="310" width="130" height="80" as="geometry" />
        </mxCell>
        <mxCell id="MsV3GpRqJ0v0YOtoz0TT-11" style="edgeStyle=orthogonalEdgeStyle;rounded=0;orthogonalLoop=1;jettySize=auto;html=1;exitX=0.5;exitY=1;exitDx=0;exitDy=0;" parent="1" source="lCpcC6EXvAtzIv-ZnMlg-7" target="MsV3GpRqJ0v0YOtoz0TT-10" edge="1">
          <mxGeometry relative="1" as="geometry">
            <mxPoint x="210" y="520" as="sourcePoint" />
          </mxGeometry>
        </mxCell>
        <mxCell id="MsV3GpRqJ0v0YOtoz0TT-13" style="edgeStyle=orthogonalEdgeStyle;rounded=0;orthogonalLoop=1;jettySize=auto;html=1;exitX=0;exitY=0.5;exitDx=0;exitDy=0;exitPerimeter=0;" parent="1" source="MsV3GpRqJ0v0YOtoz0TT-10" edge="1">
          <mxGeometry relative="1" as="geometry">
            <Array as="points">
              <mxPoint x="320" y="640" />
            </Array>
            <mxPoint x="320" y="690" as="targetPoint" />
          </mxGeometry>
        </mxCell>
        <mxCell id="MsV3GpRqJ0v0YOtoz0TT-15" value="if 1" style="edgeLabel;html=1;align=center;verticalAlign=middle;resizable=0;points=[];" parent="MsV3GpRqJ0v0YOtoz0TT-13" vertex="1" connectable="0">
          <mxGeometry x="-0.4" y="3" relative="1" as="geometry">
            <mxPoint x="89" y="3" as="offset" />
          </mxGeometry>
        </mxCell>
        <mxCell id="MsV3GpRqJ0v0YOtoz0TT-20" style="edgeStyle=orthogonalEdgeStyle;rounded=0;orthogonalLoop=1;jettySize=auto;html=1;entryX=0.5;entryY=0;entryDx=0;entryDy=0;" parent="1" source="MsV3GpRqJ0v0YOtoz0TT-10" edge="1">
          <mxGeometry relative="1" as="geometry">
            <mxPoint x="210" y="740" as="targetPoint" />
          </mxGeometry>
        </mxCell>
        <mxCell id="MsV3GpRqJ0v0YOtoz0TT-21" value="if 2" style="edgeLabel;html=1;align=center;verticalAlign=middle;resizable=0;points=[];" parent="MsV3GpRqJ0v0YOtoz0TT-20" vertex="1" connectable="0">
          <mxGeometry x="0.28" y="-2" relative="1" as="geometry">
            <mxPoint x="2" y="-12" as="offset" />
          </mxGeometry>
        </mxCell>
        <mxCell id="MsV3GpRqJ0v0YOtoz0TT-10" value="if pilihan" style="strokeWidth=2;html=1;shape=mxgraph.flowchart.decision;whiteSpace=wrap;" parent="1" vertex="1">
          <mxGeometry x="160" y="590" width="100" height="100" as="geometry" />
        </mxCell>
        <mxCell id="MsV3GpRqJ0v0YOtoz0TT-16" value="For true" style="strokeWidth=2;html=1;shape=mxgraph.flowchart.decision;whiteSpace=wrap;" parent="1" vertex="1">
          <mxGeometry x="160" y="150" width="100" height="100" as="geometry" />
        </mxCell>
        <mxCell id="MsV3GpRqJ0v0YOtoz0TT-18" value="True" style="edgeStyle=orthogonalEdgeStyle;rounded=0;orthogonalLoop=1;jettySize=auto;html=1;entryX=0.5;entryY=0;entryDx=0;entryDy=0;entryPerimeter=0;" parent="1" source="MsV3GpRqJ0v0YOtoz0TT-16" target="MsV3GpRqJ0v0YOtoz0TT-3" edge="1">
          <mxGeometry relative="1" as="geometry" />
        </mxCell>
        <mxCell id="MsV3GpRqJ0v0YOtoz0TT-22" value="Login Logic" style="text;strokeColor=none;align=center;fillColor=none;html=1;verticalAlign=middle;whiteSpace=wrap;rounded=0;" parent="1" vertex="1">
          <mxGeometry x="180" y="755" width="60" height="30" as="geometry" />
        </mxCell>
        <mxCell id="MsV3GpRqJ0v0YOtoz0TT-31" value="Terima kasih, sampai jumpa!" style="strokeWidth=2;html=1;shape=mxgraph.flowchart.display;whiteSpace=wrap;" parent="1" vertex="1">
          <mxGeometry x="30" y="735" width="100" height="60" as="geometry" />
        </mxCell>
        <mxCell id="MsV3GpRqJ0v0YOtoz0TT-32" style="edgeStyle=orthogonalEdgeStyle;rounded=0;orthogonalLoop=1;jettySize=auto;html=1;entryX=0.5;entryY=0;entryDx=0;entryDy=0;entryPerimeter=0;" parent="1" source="MsV3GpRqJ0v0YOtoz0TT-10" target="MsV3GpRqJ0v0YOtoz0TT-31" edge="1">
          <mxGeometry relative="1" as="geometry" />
        </mxCell>
        <mxCell id="MsV3GpRqJ0v0YOtoz0TT-33" value="if 0" style="edgeLabel;html=1;align=center;verticalAlign=middle;resizable=0;points=[];" parent="MsV3GpRqJ0v0YOtoz0TT-32" vertex="1" connectable="0">
          <mxGeometry x="-0.5556" y="-2" relative="1" as="geometry">
            <mxPoint as="offset" />
          </mxGeometry>
        </mxCell>
        <mxCell id="MsV3GpRqJ0v0YOtoz0TT-35" value="End" style="strokeWidth=2;html=1;shape=mxgraph.flowchart.terminator;whiteSpace=wrap;" parent="1" vertex="1">
          <mxGeometry x="30" y="1035" width="100" height="60" as="geometry" />
        </mxCell>
        <mxCell id="MsV3GpRqJ0v0YOtoz0TT-36" style="edgeStyle=orthogonalEdgeStyle;rounded=0;orthogonalLoop=1;jettySize=auto;html=1;entryX=0.5;entryY=0;entryDx=0;entryDy=0;entryPerimeter=0;" parent="1" source="MsV3GpRqJ0v0YOtoz0TT-31" target="MsV3GpRqJ0v0YOtoz0TT-35" edge="1">
          <mxGeometry relative="1" as="geometry">
            <Array as="points" />
          </mxGeometry>
        </mxCell>
        <mxCell id="MsV3GpRqJ0v0YOtoz0TT-37" style="edgeStyle=orthogonalEdgeStyle;rounded=0;orthogonalLoop=1;jettySize=auto;html=1;entryX=1;entryY=0.5;entryDx=0;entryDy=0;entryPerimeter=0;exitX=0.5;exitY=1;exitDx=0;exitDy=0;" parent="1" source="lCpcC6EXvAtzIv-ZnMlg-189" target="MsV3GpRqJ0v0YOtoz0TT-16" edge="1">
          <mxGeometry relative="1" as="geometry">
            <Array as="points">
              <mxPoint x="210" y="950" />
              <mxPoint x="390" y="950" />
              <mxPoint x="390" y="200" />
            </Array>
            <mxPoint x="210" y="890" as="sourcePoint" />
            <mxPoint x="260" y="265" as="targetPoint" />
          </mxGeometry>
        </mxCell>
        <mxCell id="MsV3GpRqJ0v0YOtoz0TT-39" value="Done" style="edgeLabel;html=1;align=center;verticalAlign=middle;resizable=0;points=[];" parent="MsV3GpRqJ0v0YOtoz0TT-37" vertex="1" connectable="0">
          <mxGeometry x="-0.0011" y="3" relative="1" as="geometry">
            <mxPoint as="offset" />
          </mxGeometry>
        </mxCell>
        <mxCell id="lCpcC6EXvAtzIv-ZnMlg-1" value="Input Logic Flowchart" style="text;strokeColor=none;align=center;fillColor=none;html=1;verticalAlign=middle;whiteSpace=wrap;rounded=0;" vertex="1" parent="1">
          <mxGeometry x="493.75" y="10" width="60" height="30" as="geometry" />
        </mxCell>
        <mxCell id="lCpcC6EXvAtzIv-ZnMlg-4" style="edgeStyle=orthogonalEdgeStyle;rounded=0;orthogonalLoop=1;jettySize=auto;html=1;entryX=0.5;entryY=0;entryDx=0;entryDy=0;" edge="1" parent="1" target="lCpcC6EXvAtzIv-ZnMlg-136">
          <mxGeometry relative="1" as="geometry">
            <mxPoint x="523.75" y="120" as="sourcePoint" />
            <mxPoint x="600" y="180" as="targetPoint" />
          </mxGeometry>
        </mxCell>
        <mxCell id="lCpcC6EXvAtzIv-ZnMlg-3" value="for true" style="rhombus;whiteSpace=wrap;html=1;" vertex="1" parent="1">
          <mxGeometry x="483.75" y="310" width="80" height="80" as="geometry" />
        </mxCell>
        <mxCell id="lCpcC6EXvAtzIv-ZnMlg-22" style="edgeStyle=orthogonalEdgeStyle;rounded=0;orthogonalLoop=1;jettySize=auto;html=1;entryX=0.5;entryY=0;entryDx=0;entryDy=0;" edge="1" parent="1" source="lCpcC6EXvAtzIv-ZnMlg-5" target="lCpcC6EXvAtzIv-ZnMlg-21">
          <mxGeometry relative="1" as="geometry" />
        </mxCell>
        <mxCell id="lCpcC6EXvAtzIv-ZnMlg-5" value="output prompt" style="strokeWidth=2;html=1;shape=mxgraph.flowchart.display;whiteSpace=wrap;" vertex="1" parent="1">
          <mxGeometry x="473.75" y="430" width="100" height="60" as="geometry" />
        </mxCell>
        <mxCell id="lCpcC6EXvAtzIv-ZnMlg-6" style="edgeStyle=orthogonalEdgeStyle;rounded=0;orthogonalLoop=1;jettySize=auto;html=1;entryX=0.5;entryY=0;entryDx=0;entryDy=0;entryPerimeter=0;" edge="1" parent="1" source="lCpcC6EXvAtzIv-ZnMlg-3" target="lCpcC6EXvAtzIv-ZnMlg-5">
          <mxGeometry relative="1" as="geometry" />
        </mxCell>
        <mxCell id="lCpcC6EXvAtzIv-ZnMlg-11" value="" style="group" vertex="1" connectable="0" parent="1">
          <mxGeometry x="155" y="440" width="110" height="80" as="geometry" />
        </mxCell>
        <mxCell id="lCpcC6EXvAtzIv-ZnMlg-7" value="" style="verticalLabelPosition=bottom;verticalAlign=top;html=1;shape=process;whiteSpace=wrap;rounded=1;size=0.14;arcSize=6;" vertex="1" parent="lCpcC6EXvAtzIv-ZnMlg-11">
          <mxGeometry width="110" height="80" as="geometry" />
        </mxCell>
        <mxCell id="lCpcC6EXvAtzIv-ZnMlg-10" value="" style="group" vertex="1" connectable="0" parent="lCpcC6EXvAtzIv-ZnMlg-11">
          <mxGeometry x="30" y="10" width="50" height="60" as="geometry" />
        </mxCell>
        <mxCell id="MsV3GpRqJ0v0YOtoz0TT-9" value="Masukkan pilihan (1/2/0):" style="text;strokeColor=none;align=center;fillColor=none;html=1;verticalAlign=middle;whiteSpace=wrap;rounded=0;" parent="lCpcC6EXvAtzIv-ZnMlg-10" vertex="1">
          <mxGeometry width="50" height="20" as="geometry" />
        </mxCell>
        <mxCell id="MsV3GpRqJ0v0YOtoz0TT-28" value="Input Logic" style="text;strokeColor=none;align=center;fillColor=none;html=1;verticalAlign=middle;whiteSpace=wrap;rounded=0;" parent="lCpcC6EXvAtzIv-ZnMlg-10" vertex="1">
          <mxGeometry y="50" width="50" height="10" as="geometry" />
        </mxCell>
        <mxCell id="MsV3GpRqJ0v0YOtoz0TT-38" style="edgeStyle=orthogonalEdgeStyle;rounded=0;orthogonalLoop=1;jettySize=auto;html=1;" parent="1" edge="1">
          <mxGeometry relative="1" as="geometry">
            <mxPoint x="260" y="200" as="targetPoint" />
            <Array as="points">
              <mxPoint x="320" y="790" />
              <mxPoint x="390" y="790" />
              <mxPoint x="390" y="200" />
            </Array>
            <mxPoint x="320" y="750" as="sourcePoint" />
          </mxGeometry>
        </mxCell>
        <mxCell id="MsV3GpRqJ0v0YOtoz0TT-14" value="Register Logic" style="text;strokeColor=none;align=center;fillColor=none;html=1;verticalAlign=middle;whiteSpace=wrap;rounded=0;movable=1;resizable=1;rotatable=1;deletable=1;editable=1;locked=0;connectable=1;" parent="1" vertex="1">
          <mxGeometry x="290" y="705" width="60" height="30" as="geometry" />
        </mxCell>
        <mxCell id="lCpcC6EXvAtzIv-ZnMlg-14" value="" style="group" vertex="1" connectable="0" parent="1">
          <mxGeometry x="478.75" y="60" width="100" height="60" as="geometry" />
        </mxCell>
        <mxCell id="lCpcC6EXvAtzIv-ZnMlg-15" value="" style="verticalLabelPosition=bottom;verticalAlign=top;html=1;shape=process;whiteSpace=wrap;rounded=1;size=0.14;arcSize=6;" vertex="1" parent="lCpcC6EXvAtzIv-ZnMlg-14">
          <mxGeometry width="100" height="60" as="geometry" />
        </mxCell>
        <mxCell id="lCpcC6EXvAtzIv-ZnMlg-16" value="" style="group" vertex="1" connectable="0" parent="lCpcC6EXvAtzIv-ZnMlg-14">
          <mxGeometry x="27.272727272727273" y="7.5" width="45.45454545454545" height="45" as="geometry" />
        </mxCell>
        <mxCell id="lCpcC6EXvAtzIv-ZnMlg-18" value="Input Logic" style="text;strokeColor=none;align=center;fillColor=none;html=1;verticalAlign=middle;whiteSpace=wrap;rounded=0;" vertex="1" parent="lCpcC6EXvAtzIv-ZnMlg-16">
          <mxGeometry y="18.75" width="45.45454545454545" height="7.5" as="geometry" />
        </mxCell>
        <mxCell id="lCpcC6EXvAtzIv-ZnMlg-21" value="input" style="shape=parallelogram;html=1;strokeWidth=2;perimeter=parallelogramPerimeter;whiteSpace=wrap;rounded=1;arcSize=12;size=0.23;" vertex="1" parent="1">
          <mxGeometry x="473.75" y="540" width="100" height="60" as="geometry" />
        </mxCell>
        <mxCell id="lCpcC6EXvAtzIv-ZnMlg-33" style="edgeStyle=orthogonalEdgeStyle;rounded=0;orthogonalLoop=1;jettySize=auto;html=1;entryX=0.5;entryY=0;entryDx=0;entryDy=0;exitX=0.5;exitY=1;exitDx=0;exitDy=0;exitPerimeter=0;" edge="1" parent="1" source="lCpcC6EXvAtzIv-ZnMlg-24" target="lCpcC6EXvAtzIv-ZnMlg-30">
          <mxGeometry relative="1" as="geometry">
            <mxPoint x="518.75" y="930" as="targetPoint" />
            <Array as="points">
              <mxPoint x="524" y="870" />
              <mxPoint x="524" y="870" />
            </Array>
          </mxGeometry>
        </mxCell>
        <mxCell id="lCpcC6EXvAtzIv-ZnMlg-135" value="return input" style="edgeLabel;html=1;align=center;verticalAlign=middle;resizable=0;points=[];" vertex="1" connectable="0" parent="lCpcC6EXvAtzIv-ZnMlg-33">
          <mxGeometry x="-0.0864" y="3" relative="1" as="geometry">
            <mxPoint as="offset" />
          </mxGeometry>
        </mxCell>
        <mxCell id="lCpcC6EXvAtzIv-ZnMlg-24" value="!AllowEmpty&lt;div&gt;&amp;amp;&amp;amp; input == &quot;&quot;&lt;/div&gt;" style="strokeWidth=2;html=1;shape=mxgraph.flowchart.decision;whiteSpace=wrap;" vertex="1" parent="1">
          <mxGeometry x="450" y="650" width="147.5" height="80" as="geometry" />
        </mxCell>
        <mxCell id="lCpcC6EXvAtzIv-ZnMlg-25" style="edgeStyle=orthogonalEdgeStyle;rounded=0;orthogonalLoop=1;jettySize=auto;html=1;entryX=0.5;entryY=0;entryDx=0;entryDy=0;entryPerimeter=0;" edge="1" parent="1" source="lCpcC6EXvAtzIv-ZnMlg-21" target="lCpcC6EXvAtzIv-ZnMlg-24">
          <mxGeometry relative="1" as="geometry" />
        </mxCell>
        <mxCell id="lCpcC6EXvAtzIv-ZnMlg-35" style="edgeStyle=orthogonalEdgeStyle;rounded=0;orthogonalLoop=1;jettySize=auto;html=1;" edge="1" parent="1" source="lCpcC6EXvAtzIv-ZnMlg-26" target="lCpcC6EXvAtzIv-ZnMlg-34">
          <mxGeometry relative="1" as="geometry" />
        </mxCell>
        <mxCell id="lCpcC6EXvAtzIv-ZnMlg-36" value="set" style="edgeLabel;html=1;align=center;verticalAlign=middle;resizable=0;points=[];" vertex="1" connectable="0" parent="lCpcC6EXvAtzIv-ZnMlg-35">
          <mxGeometry x="-0.3185" y="-1" relative="1" as="geometry">
            <mxPoint as="offset" />
          </mxGeometry>
        </mxCell>
        <mxCell id="lCpcC6EXvAtzIv-ZnMlg-26" value="if message" style="strokeWidth=2;html=1;shape=mxgraph.flowchart.decision;whiteSpace=wrap;" vertex="1" parent="1">
          <mxGeometry x="643.75" y="710" width="100" height="100" as="geometry" />
        </mxCell>
        <mxCell id="lCpcC6EXvAtzIv-ZnMlg-27" style="edgeStyle=orthogonalEdgeStyle;rounded=0;orthogonalLoop=1;jettySize=auto;html=1;entryX=0.5;entryY=0;entryDx=0;entryDy=0;entryPerimeter=0;" edge="1" parent="1" source="lCpcC6EXvAtzIv-ZnMlg-24" target="lCpcC6EXvAtzIv-ZnMlg-26">
          <mxGeometry relative="1" as="geometry" />
        </mxCell>
        <mxCell id="lCpcC6EXvAtzIv-ZnMlg-28" value="True" style="edgeLabel;html=1;align=center;verticalAlign=middle;resizable=0;points=[];" vertex="1" connectable="0" parent="lCpcC6EXvAtzIv-ZnMlg-27">
          <mxGeometry x="-0.0002" relative="1" as="geometry">
            <mxPoint as="offset" />
          </mxGeometry>
        </mxCell>
        <mxCell id="lCpcC6EXvAtzIv-ZnMlg-29" value="" style="group" vertex="1" connectable="0" parent="1">
          <mxGeometry x="473.75" y="1040" width="100" height="60" as="geometry" />
        </mxCell>
        <mxCell id="lCpcC6EXvAtzIv-ZnMlg-30" value="" style="verticalLabelPosition=bottom;verticalAlign=top;html=1;shape=process;whiteSpace=wrap;rounded=1;size=0.14;arcSize=6;" vertex="1" parent="lCpcC6EXvAtzIv-ZnMlg-29">
          <mxGeometry y="30" width="100" height="60" as="geometry" />
        </mxCell>
        <mxCell id="lCpcC6EXvAtzIv-ZnMlg-31" value="" style="group" vertex="1" connectable="0" parent="lCpcC6EXvAtzIv-ZnMlg-29">
          <mxGeometry x="27.272727272727273" y="37.5" width="45.45454545454545" height="45" as="geometry" />
        </mxCell>
        <mxCell id="lCpcC6EXvAtzIv-ZnMlg-32" value="Input Logic" style="text;strokeColor=none;align=center;fillColor=none;html=1;verticalAlign=middle;whiteSpace=wrap;rounded=0;" vertex="1" parent="lCpcC6EXvAtzIv-ZnMlg-31">
          <mxGeometry y="18.75" width="45.45454545454545" height="7.5" as="geometry" />
        </mxCell>
        <mxCell id="lCpcC6EXvAtzIv-ZnMlg-42" style="edgeStyle=orthogonalEdgeStyle;rounded=0;orthogonalLoop=1;jettySize=auto;html=1;entryX=1;entryY=0.5;entryDx=0;entryDy=0;exitX=0.5;exitY=1;exitDx=0;exitDy=0;exitPerimeter=0;" edge="1" parent="1" source="lCpcC6EXvAtzIv-ZnMlg-34" target="lCpcC6EXvAtzIv-ZnMlg-3">
          <mxGeometry relative="1" as="geometry">
            <Array as="points">
              <mxPoint x="694" y="980" />
              <mxPoint x="790" y="980" />
              <mxPoint x="790" y="350" />
            </Array>
          </mxGeometry>
        </mxCell>
        <mxCell id="lCpcC6EXvAtzIv-ZnMlg-34" value="message" style="strokeWidth=2;html=1;shape=mxgraph.flowchart.display;whiteSpace=wrap;" vertex="1" parent="1">
          <mxGeometry x="643.75" y="855" width="100" height="60" as="geometry" />
        </mxCell>
        <mxCell id="lCpcC6EXvAtzIv-ZnMlg-41" style="edgeStyle=orthogonalEdgeStyle;rounded=0;orthogonalLoop=1;jettySize=auto;html=1;entryX=1;entryY=0.5;entryDx=0;entryDy=0;exitX=0.5;exitY=1;exitDx=0;exitDy=0;exitPerimeter=0;" edge="1" parent="1" source="lCpcC6EXvAtzIv-ZnMlg-37" target="lCpcC6EXvAtzIv-ZnMlg-3">
          <mxGeometry relative="1" as="geometry">
            <Array as="points">
              <mxPoint x="604" y="1060" />
              <mxPoint x="790" y="1060" />
              <mxPoint x="790" y="350" />
            </Array>
          </mxGeometry>
        </mxCell>
        <mxCell id="lCpcC6EXvAtzIv-ZnMlg-43" value="go back" style="edgeLabel;html=1;align=center;verticalAlign=middle;resizable=0;points=[];" vertex="1" connectable="0" parent="lCpcC6EXvAtzIv-ZnMlg-41">
          <mxGeometry x="0.0357" relative="1" as="geometry">
            <mxPoint as="offset" />
          </mxGeometry>
        </mxCell>
        <mxCell id="lCpcC6EXvAtzIv-ZnMlg-37" value="Input tidak boleh kosong." style="strokeWidth=2;html=1;shape=mxgraph.flowchart.display;whiteSpace=wrap;" vertex="1" parent="1">
          <mxGeometry x="553.75" y="945" width="100" height="60" as="geometry" />
        </mxCell>
        <mxCell id="lCpcC6EXvAtzIv-ZnMlg-39" style="edgeStyle=orthogonalEdgeStyle;rounded=0;orthogonalLoop=1;jettySize=auto;html=1;entryX=0.548;entryY=0.032;entryDx=0;entryDy=0;entryPerimeter=0;" edge="1" parent="1" source="lCpcC6EXvAtzIv-ZnMlg-26" target="lCpcC6EXvAtzIv-ZnMlg-37">
          <mxGeometry relative="1" as="geometry">
            <Array as="points">
              <mxPoint x="608.75" y="760" />
            </Array>
          </mxGeometry>
        </mxCell>
        <mxCell id="lCpcC6EXvAtzIv-ZnMlg-40" value="not set" style="edgeLabel;html=1;align=center;verticalAlign=middle;resizable=0;points=[];" vertex="1" connectable="0" parent="lCpcC6EXvAtzIv-ZnMlg-39">
          <mxGeometry x="-0.0272" y="1" relative="1" as="geometry">
            <mxPoint as="offset" />
          </mxGeometry>
        </mxCell>
        <mxCell id="lCpcC6EXvAtzIv-ZnMlg-46" value="" style="group" vertex="1" connectable="0" parent="1">
          <mxGeometry x="960" y="60" width="100" height="60" as="geometry" />
        </mxCell>
        <mxCell id="lCpcC6EXvAtzIv-ZnMlg-44" value="" style="verticalLabelPosition=bottom;verticalAlign=top;html=1;shape=process;whiteSpace=wrap;rounded=1;size=0.14;arcSize=6;" vertex="1" parent="lCpcC6EXvAtzIv-ZnMlg-46">
          <mxGeometry width="100" height="60" as="geometry" />
        </mxCell>
        <mxCell id="lCpcC6EXvAtzIv-ZnMlg-45" value="Register Logic" style="text;strokeColor=none;align=center;fillColor=none;html=1;verticalAlign=middle;whiteSpace=wrap;rounded=0;movable=1;resizable=1;rotatable=1;deletable=1;editable=1;locked=0;connectable=1;" vertex="1" parent="lCpcC6EXvAtzIv-ZnMlg-46">
          <mxGeometry x="20" y="15" width="60" height="30" as="geometry" />
        </mxCell>
        <mxCell id="lCpcC6EXvAtzIv-ZnMlg-47" value="Register Logic Flowchart" style="text;strokeColor=none;align=center;fillColor=none;html=1;verticalAlign=middle;whiteSpace=wrap;rounded=0;" vertex="1" parent="1">
          <mxGeometry x="980" y="10" width="60" height="30" as="geometry" />
        </mxCell>
        <mxCell id="lCpcC6EXvAtzIv-ZnMlg-60" style="edgeStyle=orthogonalEdgeStyle;rounded=0;orthogonalLoop=1;jettySize=auto;html=1;entryX=0.5;entryY=0;entryDx=0;entryDy=0;" edge="1" parent="1" source="lCpcC6EXvAtzIv-ZnMlg-49" target="lCpcC6EXvAtzIv-ZnMlg-54">
          <mxGeometry relative="1" as="geometry" />
        </mxCell>
        <mxCell id="lCpcC6EXvAtzIv-ZnMlg-49" value="=== Register User ===" style="strokeWidth=2;html=1;shape=mxgraph.flowchart.display;whiteSpace=wrap;" vertex="1" parent="1">
          <mxGeometry x="935" y="290" width="150" height="60" as="geometry" />
        </mxCell>
        <mxCell id="lCpcC6EXvAtzIv-ZnMlg-52" style="edgeStyle=orthogonalEdgeStyle;rounded=0;orthogonalLoop=1;jettySize=auto;html=1;entryX=0.5;entryY=0;entryDx=0;entryDy=0;" edge="1" parent="1" source="lCpcC6EXvAtzIv-ZnMlg-44" target="lCpcC6EXvAtzIv-ZnMlg-138">
          <mxGeometry relative="1" as="geometry" />
        </mxCell>
        <mxCell id="lCpcC6EXvAtzIv-ZnMlg-53" value="" style="group" vertex="1" connectable="0" parent="1">
          <mxGeometry x="905" y="390" width="210" height="60" as="geometry" />
        </mxCell>
        <mxCell id="lCpcC6EXvAtzIv-ZnMlg-54" value="" style="verticalLabelPosition=bottom;verticalAlign=top;html=1;shape=process;whiteSpace=wrap;rounded=1;size=0.14;arcSize=6;" vertex="1" parent="lCpcC6EXvAtzIv-ZnMlg-53">
          <mxGeometry width="210.00000000000006" height="60" as="geometry" />
        </mxCell>
        <mxCell id="lCpcC6EXvAtzIv-ZnMlg-55" value="" style="group" vertex="1" connectable="0" parent="lCpcC6EXvAtzIv-ZnMlg-53">
          <mxGeometry x="41.08446640316207" y="7.5" width="127.82608695652178" height="45" as="geometry" />
        </mxCell>
        <mxCell id="lCpcC6EXvAtzIv-ZnMlg-56" value="Masukkan username:&lt;div&gt;Input Logic&lt;/div&gt;" style="text;strokeColor=none;align=center;fillColor=none;html=1;verticalAlign=middle;whiteSpace=wrap;rounded=0;" vertex="1" parent="lCpcC6EXvAtzIv-ZnMlg-55">
          <mxGeometry y="18.75" width="127.82608695652178" height="7.5" as="geometry" />
        </mxCell>
        <mxCell id="lCpcC6EXvAtzIv-ZnMlg-67" style="edgeStyle=orthogonalEdgeStyle;rounded=0;orthogonalLoop=1;jettySize=auto;html=1;entryX=0.5;entryY=0;entryDx=0;entryDy=0;" edge="1" parent="1" source="lCpcC6EXvAtzIv-ZnMlg-63" target="lCpcC6EXvAtzIv-ZnMlg-66">
          <mxGeometry relative="1" as="geometry" />
        </mxCell>
        <mxCell id="lCpcC6EXvAtzIv-ZnMlg-63" value="" style="verticalLabelPosition=bottom;verticalAlign=top;html=1;shape=process;whiteSpace=wrap;rounded=1;size=0.14;arcSize=6;" vertex="1" parent="1">
          <mxGeometry x="915" y="480" width="190" height="60" as="geometry" />
        </mxCell>
        <mxCell id="lCpcC6EXvAtzIv-ZnMlg-64" value="FindUserByUsername" style="text;strokeColor=none;align=center;fillColor=none;html=1;verticalAlign=middle;whiteSpace=wrap;rounded=0;" vertex="1" parent="1">
          <mxGeometry x="980" y="495" width="60" height="30" as="geometry" />
        </mxCell>
        <mxCell id="lCpcC6EXvAtzIv-ZnMlg-65" style="edgeStyle=orthogonalEdgeStyle;rounded=0;orthogonalLoop=1;jettySize=auto;html=1;" edge="1" parent="1" source="lCpcC6EXvAtzIv-ZnMlg-54" target="lCpcC6EXvAtzIv-ZnMlg-63">
          <mxGeometry relative="1" as="geometry" />
        </mxCell>
        <mxCell id="lCpcC6EXvAtzIv-ZnMlg-74" style="edgeStyle=orthogonalEdgeStyle;rounded=0;orthogonalLoop=1;jettySize=auto;html=1;entryX=0;entryY=0.5;entryDx=0;entryDy=0;" edge="1" parent="1" source="lCpcC6EXvAtzIv-ZnMlg-66" target="lCpcC6EXvAtzIv-ZnMlg-71">
          <mxGeometry relative="1" as="geometry" />
        </mxCell>
        <mxCell id="lCpcC6EXvAtzIv-ZnMlg-151" value="false" style="edgeLabel;html=1;align=center;verticalAlign=middle;resizable=0;points=[];" vertex="1" connectable="0" parent="lCpcC6EXvAtzIv-ZnMlg-74">
          <mxGeometry x="-0.3513" y="-4" relative="1" as="geometry">
            <mxPoint y="1" as="offset" />
          </mxGeometry>
        </mxCell>
        <mxCell id="lCpcC6EXvAtzIv-ZnMlg-66" value="if" style="rhombus;whiteSpace=wrap;html=1;" vertex="1" parent="1">
          <mxGeometry x="970" y="580" width="80" height="80" as="geometry" />
        </mxCell>
        <mxCell id="lCpcC6EXvAtzIv-ZnMlg-84" style="edgeStyle=orthogonalEdgeStyle;rounded=0;orthogonalLoop=1;jettySize=auto;html=1;entryX=0.5;entryY=0;entryDx=0;entryDy=0;exitX=0.5;exitY=1;exitDx=0;exitDy=0;exitPerimeter=0;" edge="1" parent="1" source="lCpcC6EXvAtzIv-ZnMlg-68" target="lCpcC6EXvAtzIv-ZnMlg-80">
          <mxGeometry relative="1" as="geometry">
            <mxPoint x="1109.9999999999998" y="860" as="targetPoint" />
            <Array as="points">
              <mxPoint x="955" y="930" />
              <mxPoint x="1116" y="930" />
            </Array>
          </mxGeometry>
        </mxCell>
        <mxCell id="lCpcC6EXvAtzIv-ZnMlg-68" value="Username sudah ada" style="strokeWidth=2;html=1;shape=mxgraph.flowchart.display;whiteSpace=wrap;" vertex="1" parent="1">
          <mxGeometry x="880" y="760" width="150" height="60" as="geometry" />
        </mxCell>
        <mxCell id="lCpcC6EXvAtzIv-ZnMlg-69" style="edgeStyle=orthogonalEdgeStyle;rounded=0;orthogonalLoop=1;jettySize=auto;html=1;entryX=0.5;entryY=0;entryDx=0;entryDy=0;entryPerimeter=0;" edge="1" parent="1" source="lCpcC6EXvAtzIv-ZnMlg-66" target="lCpcC6EXvAtzIv-ZnMlg-68">
          <mxGeometry relative="1" as="geometry" />
        </mxCell>
        <mxCell id="lCpcC6EXvAtzIv-ZnMlg-152" value="true" style="edgeLabel;html=1;align=center;verticalAlign=middle;resizable=0;points=[];" vertex="1" connectable="0" parent="lCpcC6EXvAtzIv-ZnMlg-69">
          <mxGeometry x="-0.5543" y="-3" relative="1" as="geometry">
            <mxPoint as="offset" />
          </mxGeometry>
        </mxCell>
        <mxCell id="lCpcC6EXvAtzIv-ZnMlg-70" value="" style="group" vertex="1" connectable="0" parent="1">
          <mxGeometry x="1115" y="630" width="185" height="60" as="geometry" />
        </mxCell>
        <mxCell id="lCpcC6EXvAtzIv-ZnMlg-71" value="" style="verticalLabelPosition=bottom;verticalAlign=top;html=1;shape=process;whiteSpace=wrap;rounded=1;size=0.14;arcSize=6;" vertex="1" parent="lCpcC6EXvAtzIv-ZnMlg-70">
          <mxGeometry width="185.00000000000006" height="60" as="geometry" />
        </mxCell>
        <mxCell id="lCpcC6EXvAtzIv-ZnMlg-72" value="" style="group" vertex="1" connectable="0" parent="lCpcC6EXvAtzIv-ZnMlg-70">
          <mxGeometry x="36.19345849802373" y="7.5" width="130" height="45" as="geometry" />
        </mxCell>
        <mxCell id="lCpcC6EXvAtzIv-ZnMlg-73" value="Masukkan password:&lt;div&gt;Input Logic&lt;/div&gt;" style="text;strokeColor=none;align=center;fillColor=none;html=1;verticalAlign=middle;whiteSpace=wrap;rounded=0;" vertex="1" parent="lCpcC6EXvAtzIv-ZnMlg-72">
          <mxGeometry x="-8.69" y="18.75" width="130" height="7.5" as="geometry" />
        </mxCell>
        <mxCell id="lCpcC6EXvAtzIv-ZnMlg-76" style="edgeStyle=orthogonalEdgeStyle;rounded=0;orthogonalLoop=1;jettySize=auto;html=1;entryX=0.5;entryY=0;entryDx=0;entryDy=0;" edge="1" parent="1" source="lCpcC6EXvAtzIv-ZnMlg-71" target="lCpcC6EXvAtzIv-ZnMlg-110">
          <mxGeometry relative="1" as="geometry">
            <mxPoint x="1235" y="700" as="targetPoint" />
          </mxGeometry>
        </mxCell>
        <mxCell id="lCpcC6EXvAtzIv-ZnMlg-83" style="edgeStyle=orthogonalEdgeStyle;rounded=0;orthogonalLoop=1;jettySize=auto;html=1;entryX=0.5;entryY=0;entryDx=0;entryDy=0;" edge="1" parent="1" source="lCpcC6EXvAtzIv-ZnMlg-77" target="lCpcC6EXvAtzIv-ZnMlg-80">
          <mxGeometry relative="1" as="geometry" />
        </mxCell>
        <mxCell id="lCpcC6EXvAtzIv-ZnMlg-77" value="User &#39;%s&#39; berhasil didaftarkan" style="strokeWidth=2;html=1;shape=mxgraph.flowchart.display;whiteSpace=wrap;" vertex="1" parent="1">
          <mxGeometry x="1115" y="855" width="150" height="60" as="geometry" />
        </mxCell>
        <mxCell id="lCpcC6EXvAtzIv-ZnMlg-78" style="edgeStyle=orthogonalEdgeStyle;rounded=0;orthogonalLoop=1;jettySize=auto;html=1;entryX=0.5;entryY=0;entryDx=0;entryDy=0;entryPerimeter=0;exitX=0.5;exitY=1;exitDx=0;exitDy=0;" edge="1" parent="1" source="lCpcC6EXvAtzIv-ZnMlg-110" target="lCpcC6EXvAtzIv-ZnMlg-77">
          <mxGeometry relative="1" as="geometry">
            <mxPoint x="1235" y="760" as="sourcePoint" />
          </mxGeometry>
        </mxCell>
        <mxCell id="lCpcC6EXvAtzIv-ZnMlg-79" value="" style="group" vertex="1" connectable="0" parent="1">
          <mxGeometry x="1065.5" y="990" width="100" height="60" as="geometry" />
        </mxCell>
        <mxCell id="lCpcC6EXvAtzIv-ZnMlg-80" value="" style="verticalLabelPosition=bottom;verticalAlign=top;html=1;shape=process;whiteSpace=wrap;rounded=1;size=0.14;arcSize=6;" vertex="1" parent="lCpcC6EXvAtzIv-ZnMlg-79">
          <mxGeometry width="100" height="60" as="geometry" />
        </mxCell>
        <mxCell id="lCpcC6EXvAtzIv-ZnMlg-81" value="Register Logic" style="text;strokeColor=none;align=center;fillColor=none;html=1;verticalAlign=middle;whiteSpace=wrap;rounded=0;movable=1;resizable=1;rotatable=1;deletable=1;editable=1;locked=0;connectable=1;" vertex="1" parent="lCpcC6EXvAtzIv-ZnMlg-79">
          <mxGeometry x="20" y="15" width="60" height="30" as="geometry" />
        </mxCell>
        <mxCell id="lCpcC6EXvAtzIv-ZnMlg-85" value="FindUserByUsername&lt;div&gt;Flowchart&lt;/div&gt;" style="text;strokeColor=none;align=center;fillColor=none;html=1;verticalAlign=middle;whiteSpace=wrap;rounded=0;" vertex="1" parent="1">
          <mxGeometry x="1780" y="80" width="120" height="30" as="geometry" />
        </mxCell>
        <mxCell id="lCpcC6EXvAtzIv-ZnMlg-87" value="" style="group" vertex="1" connectable="0" parent="1">
          <mxGeometry x="1740" y="120" width="190" height="60" as="geometry" />
        </mxCell>
        <mxCell id="lCpcC6EXvAtzIv-ZnMlg-61" value="" style="verticalLabelPosition=bottom;verticalAlign=top;html=1;shape=process;whiteSpace=wrap;rounded=1;size=0.14;arcSize=6;" vertex="1" parent="lCpcC6EXvAtzIv-ZnMlg-87">
          <mxGeometry width="190" height="60" as="geometry" />
        </mxCell>
        <mxCell id="lCpcC6EXvAtzIv-ZnMlg-62" value="FindUserByUsername" style="text;strokeColor=none;align=center;fillColor=none;html=1;verticalAlign=middle;whiteSpace=wrap;rounded=0;" vertex="1" parent="lCpcC6EXvAtzIv-ZnMlg-87">
          <mxGeometry x="65" y="15" width="60" height="30" as="geometry" />
        </mxCell>
        <mxCell id="lCpcC6EXvAtzIv-ZnMlg-88" value="For Loop Item In UsersDB" style="rounded=1;whiteSpace=wrap;html=1;absoluteArcSize=1;arcSize=14;strokeWidth=2;" vertex="1" parent="1">
          <mxGeometry x="1755" y="220" width="160" height="40" as="geometry" />
        </mxCell>
        <mxCell id="lCpcC6EXvAtzIv-ZnMlg-89" style="edgeStyle=orthogonalEdgeStyle;rounded=0;orthogonalLoop=1;jettySize=auto;html=1;entryX=0.5;entryY=0;entryDx=0;entryDy=0;" edge="1" parent="1" source="lCpcC6EXvAtzIv-ZnMlg-61" target="lCpcC6EXvAtzIv-ZnMlg-88">
          <mxGeometry relative="1" as="geometry" />
        </mxCell>
        <mxCell id="lCpcC6EXvAtzIv-ZnMlg-97" style="edgeStyle=orthogonalEdgeStyle;rounded=0;orthogonalLoop=1;jettySize=auto;html=1;entryX=0.5;entryY=0;entryDx=0;entryDy=0;" edge="1" parent="1" source="lCpcC6EXvAtzIv-ZnMlg-90" target="lCpcC6EXvAtzIv-ZnMlg-94">
          <mxGeometry relative="1" as="geometry" />
        </mxCell>
        <mxCell id="lCpcC6EXvAtzIv-ZnMlg-98" value="Return None" style="edgeLabel;html=1;align=center;verticalAlign=middle;resizable=0;points=[];" vertex="1" connectable="0" parent="lCpcC6EXvAtzIv-ZnMlg-97">
          <mxGeometry x="-0.1857" relative="1" as="geometry">
            <mxPoint as="offset" />
          </mxGeometry>
        </mxCell>
        <mxCell id="lCpcC6EXvAtzIv-ZnMlg-99" style="edgeStyle=orthogonalEdgeStyle;rounded=0;orthogonalLoop=1;jettySize=auto;html=1;exitX=1;exitY=0.5;exitDx=0;exitDy=0;exitPerimeter=0;entryX=0.5;entryY=0;entryDx=0;entryDy=0;" edge="1" parent="1" source="lCpcC6EXvAtzIv-ZnMlg-90" target="lCpcC6EXvAtzIv-ZnMlg-94">
          <mxGeometry relative="1" as="geometry">
            <Array as="points">
              <mxPoint x="1918" y="370" />
              <mxPoint x="1918" y="520" />
              <mxPoint x="1835" y="520" />
            </Array>
          </mxGeometry>
        </mxCell>
        <mxCell id="lCpcC6EXvAtzIv-ZnMlg-100" value="Return User" style="edgeLabel;html=1;align=center;verticalAlign=middle;resizable=0;points=[];" vertex="1" connectable="0" parent="lCpcC6EXvAtzIv-ZnMlg-99">
          <mxGeometry x="-0.2129" relative="1" as="geometry">
            <mxPoint x="2" y="-20" as="offset" />
          </mxGeometry>
        </mxCell>
        <mxCell id="lCpcC6EXvAtzIv-ZnMlg-90" value="if&amp;nbsp;&lt;div&gt;user.Username == username&lt;/div&gt;" style="strokeWidth=2;html=1;shape=mxgraph.flowchart.decision;whiteSpace=wrap;" vertex="1" parent="1">
          <mxGeometry x="1772.5" y="320" width="125" height="100" as="geometry" />
        </mxCell>
        <mxCell id="lCpcC6EXvAtzIv-ZnMlg-92" style="edgeStyle=orthogonalEdgeStyle;rounded=0;orthogonalLoop=1;jettySize=auto;html=1;entryX=0.5;entryY=0;entryDx=0;entryDy=0;entryPerimeter=0;" edge="1" parent="1" source="lCpcC6EXvAtzIv-ZnMlg-88" target="lCpcC6EXvAtzIv-ZnMlg-90">
          <mxGeometry relative="1" as="geometry" />
        </mxCell>
        <mxCell id="lCpcC6EXvAtzIv-ZnMlg-93" value="" style="group" vertex="1" connectable="0" parent="1">
          <mxGeometry x="1740" y="560" width="190" height="60" as="geometry" />
        </mxCell>
        <mxCell id="lCpcC6EXvAtzIv-ZnMlg-94" value="" style="verticalLabelPosition=bottom;verticalAlign=top;html=1;shape=process;whiteSpace=wrap;rounded=1;size=0.14;arcSize=6;" vertex="1" parent="lCpcC6EXvAtzIv-ZnMlg-93">
          <mxGeometry width="190" height="60" as="geometry" />
        </mxCell>
        <mxCell id="lCpcC6EXvAtzIv-ZnMlg-95" value="FindUserByUsername" style="text;strokeColor=none;align=center;fillColor=none;html=1;verticalAlign=middle;whiteSpace=wrap;rounded=0;" vertex="1" parent="lCpcC6EXvAtzIv-ZnMlg-93">
          <mxGeometry x="65" y="15" width="60" height="30" as="geometry" />
        </mxCell>
        <mxCell id="lCpcC6EXvAtzIv-ZnMlg-101" value="utils.User" style="text;strokeColor=none;align=center;fillColor=none;html=1;verticalAlign=middle;whiteSpace=wrap;rounded=0;" vertex="1" parent="1">
          <mxGeometry x="2040" y="40" width="60" height="30" as="geometry" />
        </mxCell>
        <mxCell id="lCpcC6EXvAtzIv-ZnMlg-102" value="AddUser&lt;div&gt;Flowchart&lt;/div&gt;" style="text;strokeColor=none;align=center;fillColor=none;html=1;verticalAlign=middle;whiteSpace=wrap;rounded=0;" vertex="1" parent="1">
          <mxGeometry x="2010" y="80" width="120" height="30" as="geometry" />
        </mxCell>
        <mxCell id="lCpcC6EXvAtzIv-ZnMlg-106" style="edgeStyle=orthogonalEdgeStyle;rounded=0;orthogonalLoop=1;jettySize=auto;html=1;entryX=0.5;entryY=0;entryDx=0;entryDy=0;" edge="1" parent="1" source="lCpcC6EXvAtzIv-ZnMlg-103" target="lCpcC6EXvAtzIv-ZnMlg-105">
          <mxGeometry relative="1" as="geometry" />
        </mxCell>
        <mxCell id="lCpcC6EXvAtzIv-ZnMlg-103" value="" style="verticalLabelPosition=bottom;verticalAlign=top;html=1;shape=process;whiteSpace=wrap;rounded=1;size=0.14;arcSize=6;" vertex="1" parent="1">
          <mxGeometry x="2020" y="120" width="95" height="60" as="geometry" />
        </mxCell>
        <mxCell id="lCpcC6EXvAtzIv-ZnMlg-104" value="AddUser" style="text;strokeColor=none;align=center;fillColor=none;html=1;verticalAlign=middle;whiteSpace=wrap;rounded=0;" vertex="1" parent="1">
          <mxGeometry x="2040" y="135" width="60" height="30" as="geometry" />
        </mxCell>
        <mxCell id="lCpcC6EXvAtzIv-ZnMlg-109" style="edgeStyle=orthogonalEdgeStyle;rounded=0;orthogonalLoop=1;jettySize=auto;html=1;entryX=0.5;entryY=0;entryDx=0;entryDy=0;" edge="1" parent="1" source="lCpcC6EXvAtzIv-ZnMlg-105" target="lCpcC6EXvAtzIv-ZnMlg-107">
          <mxGeometry relative="1" as="geometry" />
        </mxCell>
        <mxCell id="lCpcC6EXvAtzIv-ZnMlg-105" value="apend to UsersDB" style="rounded=1;whiteSpace=wrap;html=1;absoluteArcSize=1;arcSize=14;strokeWidth=2;" vertex="1" parent="1">
          <mxGeometry x="1998" y="230" width="139" height="40" as="geometry" />
        </mxCell>
        <mxCell id="lCpcC6EXvAtzIv-ZnMlg-107" value="" style="verticalLabelPosition=bottom;verticalAlign=top;html=1;shape=process;whiteSpace=wrap;rounded=1;size=0.14;arcSize=6;" vertex="1" parent="1">
          <mxGeometry x="2020" y="330" width="95" height="60" as="geometry" />
        </mxCell>
        <mxCell id="lCpcC6EXvAtzIv-ZnMlg-108" value="AddUser" style="text;strokeColor=none;align=center;fillColor=none;html=1;verticalAlign=middle;whiteSpace=wrap;rounded=0;" vertex="1" parent="1">
          <mxGeometry x="2040" y="345" width="60" height="30" as="geometry" />
        </mxCell>
        <mxCell id="lCpcC6EXvAtzIv-ZnMlg-110" value="" style="verticalLabelPosition=bottom;verticalAlign=top;html=1;shape=process;whiteSpace=wrap;rounded=1;size=0.14;arcSize=6;" vertex="1" parent="1">
          <mxGeometry x="1142.5" y="735" width="95" height="60" as="geometry" />
        </mxCell>
        <mxCell id="lCpcC6EXvAtzIv-ZnMlg-111" value="AddUser" style="text;strokeColor=none;align=center;fillColor=none;html=1;verticalAlign=middle;whiteSpace=wrap;rounded=0;" vertex="1" parent="1">
          <mxGeometry x="1162.5" y="750" width="60" height="30" as="geometry" />
        </mxCell>
        <mxCell id="lCpcC6EXvAtzIv-ZnMlg-112" value="DeleteUser&lt;div&gt;Flowchart&lt;/div&gt;" style="text;strokeColor=none;align=center;fillColor=none;html=1;verticalAlign=middle;whiteSpace=wrap;rounded=0;" vertex="1" parent="1">
          <mxGeometry x="2250" y="80" width="120" height="30" as="geometry" />
        </mxCell>
        <mxCell id="lCpcC6EXvAtzIv-ZnMlg-114" value="For Loop Item In UsersDB/ w index" style="rounded=1;whiteSpace=wrap;html=1;absoluteArcSize=1;arcSize=14;strokeWidth=2;" vertex="1" parent="1">
          <mxGeometry x="2230" y="230" width="160" height="40" as="geometry" />
        </mxCell>
        <mxCell id="lCpcC6EXvAtzIv-ZnMlg-117" style="edgeStyle=orthogonalEdgeStyle;rounded=0;orthogonalLoop=1;jettySize=auto;html=1;entryX=0.5;entryY=0;entryDx=0;entryDy=0;" edge="1" parent="1" source="lCpcC6EXvAtzIv-ZnMlg-115" target="lCpcC6EXvAtzIv-ZnMlg-114">
          <mxGeometry relative="1" as="geometry" />
        </mxCell>
        <mxCell id="lCpcC6EXvAtzIv-ZnMlg-115" value="" style="verticalLabelPosition=bottom;verticalAlign=top;html=1;shape=process;whiteSpace=wrap;rounded=1;size=0.14;arcSize=6;" vertex="1" parent="1">
          <mxGeometry x="2262.5" y="120" width="95" height="60" as="geometry" />
        </mxCell>
        <mxCell id="lCpcC6EXvAtzIv-ZnMlg-116" value="AddUser" style="text;strokeColor=none;align=center;fillColor=none;html=1;verticalAlign=middle;whiteSpace=wrap;rounded=0;" vertex="1" parent="1">
          <mxGeometry x="2282.5" y="135" width="60" height="30" as="geometry" />
        </mxCell>
        <mxCell id="lCpcC6EXvAtzIv-ZnMlg-121" style="edgeStyle=orthogonalEdgeStyle;rounded=0;orthogonalLoop=1;jettySize=auto;html=1;entryX=0.5;entryY=0;entryDx=0;entryDy=0;" edge="1" parent="1" source="lCpcC6EXvAtzIv-ZnMlg-118" target="lCpcC6EXvAtzIv-ZnMlg-120">
          <mxGeometry relative="1" as="geometry" />
        </mxCell>
        <mxCell id="lCpcC6EXvAtzIv-ZnMlg-124" value="Found" style="edgeLabel;html=1;align=center;verticalAlign=middle;resizable=0;points=[];" vertex="1" connectable="0" parent="lCpcC6EXvAtzIv-ZnMlg-121">
          <mxGeometry x="-0.2406" y="2" relative="1" as="geometry">
            <mxPoint x="-2" y="5" as="offset" />
          </mxGeometry>
        </mxCell>
        <mxCell id="lCpcC6EXvAtzIv-ZnMlg-125" style="edgeStyle=orthogonalEdgeStyle;rounded=0;orthogonalLoop=1;jettySize=auto;html=1;exitX=1;exitY=0.5;exitDx=0;exitDy=0;exitPerimeter=0;entryX=1;entryY=0.5;entryDx=0;entryDy=0;" edge="1" parent="1" source="lCpcC6EXvAtzIv-ZnMlg-118" target="lCpcC6EXvAtzIv-ZnMlg-122">
          <mxGeometry relative="1" as="geometry">
            <Array as="points">
              <mxPoint x="2430" y="354" />
              <mxPoint x="2430" y="630" />
            </Array>
          </mxGeometry>
        </mxCell>
        <mxCell id="lCpcC6EXvAtzIv-ZnMlg-126" value="False" style="edgeLabel;html=1;align=center;verticalAlign=middle;resizable=0;points=[];" vertex="1" connectable="0" parent="lCpcC6EXvAtzIv-ZnMlg-125">
          <mxGeometry x="0.0574" y="1" relative="1" as="geometry">
            <mxPoint as="offset" />
          </mxGeometry>
        </mxCell>
        <mxCell id="lCpcC6EXvAtzIv-ZnMlg-118" value="IF&amp;nbsp;&lt;div&gt;username&amp;nbsp;&lt;/div&gt;&lt;div&gt;== args&lt;/div&gt;" style="strokeWidth=2;html=1;shape=mxgraph.flowchart.decision;whiteSpace=wrap;" vertex="1" parent="1">
          <mxGeometry x="2260" y="304" width="100" height="100" as="geometry" />
        </mxCell>
        <mxCell id="lCpcC6EXvAtzIv-ZnMlg-119" style="edgeStyle=orthogonalEdgeStyle;rounded=0;orthogonalLoop=1;jettySize=auto;html=1;entryX=0.5;entryY=0;entryDx=0;entryDy=0;entryPerimeter=0;" edge="1" parent="1" source="lCpcC6EXvAtzIv-ZnMlg-114" target="lCpcC6EXvAtzIv-ZnMlg-118">
          <mxGeometry relative="1" as="geometry" />
        </mxCell>
        <mxCell id="lCpcC6EXvAtzIv-ZnMlg-127" style="edgeStyle=orthogonalEdgeStyle;rounded=0;orthogonalLoop=1;jettySize=auto;html=1;entryX=0.5;entryY=0;entryDx=0;entryDy=0;" edge="1" parent="1" source="lCpcC6EXvAtzIv-ZnMlg-120" target="lCpcC6EXvAtzIv-ZnMlg-122">
          <mxGeometry relative="1" as="geometry" />
        </mxCell>
        <mxCell id="lCpcC6EXvAtzIv-ZnMlg-128" value="True" style="edgeLabel;html=1;align=center;verticalAlign=middle;resizable=0;points=[];" vertex="1" connectable="0" parent="lCpcC6EXvAtzIv-ZnMlg-127">
          <mxGeometry x="0.2632" y="1" relative="1" as="geometry">
            <mxPoint as="offset" />
          </mxGeometry>
        </mxCell>
        <mxCell id="lCpcC6EXvAtzIv-ZnMlg-120" value="Delete From UserDB" style="rounded=1;whiteSpace=wrap;html=1;absoluteArcSize=1;arcSize=14;strokeWidth=2;" vertex="1" parent="1">
          <mxGeometry x="2230" y="460" width="160" height="40" as="geometry" />
        </mxCell>
        <mxCell id="lCpcC6EXvAtzIv-ZnMlg-122" value="" style="verticalLabelPosition=bottom;verticalAlign=top;html=1;shape=process;whiteSpace=wrap;rounded=1;size=0.14;arcSize=6;" vertex="1" parent="1">
          <mxGeometry x="2262.5" y="600" width="95" height="60" as="geometry" />
        </mxCell>
        <mxCell id="lCpcC6EXvAtzIv-ZnMlg-123" value="AddUser" style="text;strokeColor=none;align=center;fillColor=none;html=1;verticalAlign=middle;whiteSpace=wrap;rounded=0;" vertex="1" parent="1">
          <mxGeometry x="2282.5" y="615" width="60" height="30" as="geometry" />
        </mxCell>
        <mxCell id="lCpcC6EXvAtzIv-ZnMlg-133" style="edgeStyle=orthogonalEdgeStyle;rounded=0;orthogonalLoop=1;jettySize=auto;html=1;entryX=0.5;entryY=0;entryDx=0;entryDy=0;" edge="1" parent="1" source="lCpcC6EXvAtzIv-ZnMlg-129" target="lCpcC6EXvAtzIv-ZnMlg-134">
          <mxGeometry relative="1" as="geometry" />
        </mxCell>
        <mxCell id="lCpcC6EXvAtzIv-ZnMlg-129" value="" style="verticalLabelPosition=bottom;verticalAlign=top;html=1;shape=process;whiteSpace=wrap;rounded=1;size=0.14;arcSize=6;" vertex="1" parent="1">
          <mxGeometry x="1460" y="60" width="100" height="60" as="geometry" />
        </mxCell>
        <mxCell id="lCpcC6EXvAtzIv-ZnMlg-130" value="Login Logic" style="text;strokeColor=none;align=center;fillColor=none;html=1;verticalAlign=middle;whiteSpace=wrap;rounded=0;" vertex="1" parent="1">
          <mxGeometry x="1480" y="75" width="60" height="30" as="geometry" />
        </mxCell>
        <mxCell id="lCpcC6EXvAtzIv-ZnMlg-131" value="Login Logic Flowchart" style="text;strokeColor=none;align=center;fillColor=none;html=1;verticalAlign=middle;whiteSpace=wrap;rounded=0;" vertex="1" parent="1">
          <mxGeometry x="1480" y="10" width="60" height="30" as="geometry" />
        </mxCell>
        <mxCell id="lCpcC6EXvAtzIv-ZnMlg-150" style="edgeStyle=orthogonalEdgeStyle;rounded=0;orthogonalLoop=1;jettySize=auto;html=1;entryX=0.5;entryY=0;entryDx=0;entryDy=0;" edge="1" parent="1" source="lCpcC6EXvAtzIv-ZnMlg-132" target="lCpcC6EXvAtzIv-ZnMlg-141">
          <mxGeometry relative="1" as="geometry" />
        </mxCell>
        <mxCell id="lCpcC6EXvAtzIv-ZnMlg-132" value="=== Login ===" style="strokeWidth=2;html=1;shape=mxgraph.flowchart.display;whiteSpace=wrap;align=center;" vertex="1" parent="1">
          <mxGeometry x="1420" y="290" width="130" height="80" as="geometry" />
        </mxCell>
        <mxCell id="lCpcC6EXvAtzIv-ZnMlg-144" style="edgeStyle=orthogonalEdgeStyle;rounded=0;orthogonalLoop=1;jettySize=auto;html=1;entryX=0.5;entryY=0;entryDx=0;entryDy=0;entryPerimeter=0;" edge="1" parent="1" source="lCpcC6EXvAtzIv-ZnMlg-134" target="lCpcC6EXvAtzIv-ZnMlg-132">
          <mxGeometry relative="1" as="geometry">
            <mxPoint x="1500" y="280" as="targetPoint" />
          </mxGeometry>
        </mxCell>
        <mxCell id="lCpcC6EXvAtzIv-ZnMlg-134" value="&lt;div&gt;&lt;br&gt;&lt;/div&gt;username&lt;div&gt;password&lt;/div&gt;&lt;div&gt;user&lt;/div&gt;" style="shape=internalStorage;whiteSpace=wrap;html=1;dx=15;dy=15;rounded=1;arcSize=8;strokeWidth=2;" vertex="1" parent="1">
          <mxGeometry x="1452.5" y="165" width="115" height="70" as="geometry" />
        </mxCell>
        <mxCell id="lCpcC6EXvAtzIv-ZnMlg-137" style="edgeStyle=orthogonalEdgeStyle;rounded=0;orthogonalLoop=1;jettySize=auto;html=1;" edge="1" parent="1" source="lCpcC6EXvAtzIv-ZnMlg-136" target="lCpcC6EXvAtzIv-ZnMlg-3">
          <mxGeometry relative="1" as="geometry" />
        </mxCell>
        <mxCell id="lCpcC6EXvAtzIv-ZnMlg-136" value="&lt;div&gt;&lt;br&gt;&lt;/div&gt;&lt;div&gt;&lt;br&gt;&lt;/div&gt;input&lt;div&gt;message&lt;/div&gt;&lt;div&gt;AllowEmpty&lt;/div&gt;&lt;div&gt;prompt&lt;/div&gt;&lt;div&gt;&lt;br&gt;&lt;/div&gt;" style="shape=internalStorage;whiteSpace=wrap;html=1;dx=15;dy=15;rounded=1;arcSize=8;strokeWidth=2;" vertex="1" parent="1">
          <mxGeometry x="466.25" y="160" width="115" height="110" as="geometry" />
        </mxCell>
        <mxCell id="lCpcC6EXvAtzIv-ZnMlg-139" style="edgeStyle=orthogonalEdgeStyle;rounded=0;orthogonalLoop=1;jettySize=auto;html=1;" edge="1" parent="1" source="lCpcC6EXvAtzIv-ZnMlg-138" target="lCpcC6EXvAtzIv-ZnMlg-49">
          <mxGeometry relative="1" as="geometry" />
        </mxCell>
        <mxCell id="lCpcC6EXvAtzIv-ZnMlg-138" value="username&lt;div&gt;password&lt;/div&gt;" style="shape=internalStorage;whiteSpace=wrap;html=1;dx=15;dy=15;rounded=1;arcSize=8;strokeWidth=2;" vertex="1" parent="1">
          <mxGeometry x="952.5" y="165" width="115" height="70" as="geometry" />
        </mxCell>
        <mxCell id="lCpcC6EXvAtzIv-ZnMlg-140" value="" style="group" vertex="1" connectable="0" parent="1">
          <mxGeometry x="1380" y="435" width="210" height="60" as="geometry" />
        </mxCell>
        <mxCell id="lCpcC6EXvAtzIv-ZnMlg-141" value="" style="verticalLabelPosition=bottom;verticalAlign=top;html=1;shape=process;whiteSpace=wrap;rounded=1;size=0.14;arcSize=6;" vertex="1" parent="lCpcC6EXvAtzIv-ZnMlg-140">
          <mxGeometry width="210.00000000000006" height="60" as="geometry" />
        </mxCell>
        <mxCell id="lCpcC6EXvAtzIv-ZnMlg-142" value="" style="group" vertex="1" connectable="0" parent="lCpcC6EXvAtzIv-ZnMlg-140">
          <mxGeometry x="41.08446640316207" y="7.5" width="127.82608695652178" height="45" as="geometry" />
        </mxCell>
        <mxCell id="lCpcC6EXvAtzIv-ZnMlg-143" value="Masukkan username:&lt;div&gt;Input Logic&lt;/div&gt;" style="text;strokeColor=none;align=center;fillColor=none;html=1;verticalAlign=middle;whiteSpace=wrap;rounded=0;" vertex="1" parent="lCpcC6EXvAtzIv-ZnMlg-142">
          <mxGeometry y="18.75" width="127.82608695652178" height="7.5" as="geometry" />
        </mxCell>
        <mxCell id="lCpcC6EXvAtzIv-ZnMlg-145" value="" style="group" vertex="1" connectable="0" parent="1">
          <mxGeometry x="1380" y="525" width="210" height="60" as="geometry" />
        </mxCell>
        <mxCell id="lCpcC6EXvAtzIv-ZnMlg-146" value="" style="verticalLabelPosition=bottom;verticalAlign=top;html=1;shape=process;whiteSpace=wrap;rounded=1;size=0.14;arcSize=6;" vertex="1" parent="lCpcC6EXvAtzIv-ZnMlg-145">
          <mxGeometry width="210.00000000000006" height="60" as="geometry" />
        </mxCell>
        <mxCell id="lCpcC6EXvAtzIv-ZnMlg-147" value="" style="group" vertex="1" connectable="0" parent="lCpcC6EXvAtzIv-ZnMlg-145">
          <mxGeometry x="41.08446640316207" y="7.5" width="127.82608695652178" height="45" as="geometry" />
        </mxCell>
        <mxCell id="lCpcC6EXvAtzIv-ZnMlg-148" value="Masukkan password:&lt;div&gt;Input Logic&lt;/div&gt;" style="text;strokeColor=none;align=center;fillColor=none;html=1;verticalAlign=middle;whiteSpace=wrap;rounded=0;" vertex="1" parent="lCpcC6EXvAtzIv-ZnMlg-147">
          <mxGeometry y="18.75" width="127.82608695652178" height="7.5" as="geometry" />
        </mxCell>
        <mxCell id="lCpcC6EXvAtzIv-ZnMlg-149" style="edgeStyle=orthogonalEdgeStyle;rounded=0;orthogonalLoop=1;jettySize=auto;html=1;entryX=0.5;entryY=0;entryDx=0;entryDy=0;" edge="1" parent="1" source="lCpcC6EXvAtzIv-ZnMlg-141" target="lCpcC6EXvAtzIv-ZnMlg-146">
          <mxGeometry relative="1" as="geometry" />
        </mxCell>
        <mxCell id="lCpcC6EXvAtzIv-ZnMlg-155" style="edgeStyle=orthogonalEdgeStyle;rounded=0;orthogonalLoop=1;jettySize=auto;html=1;entryX=0.5;entryY=0;entryDx=0;entryDy=0;" edge="1" parent="1" source="lCpcC6EXvAtzIv-ZnMlg-156" target="lCpcC6EXvAtzIv-ZnMlg-159">
          <mxGeometry relative="1" as="geometry" />
        </mxCell>
        <mxCell id="lCpcC6EXvAtzIv-ZnMlg-156" value="" style="verticalLabelPosition=bottom;verticalAlign=top;html=1;shape=process;whiteSpace=wrap;rounded=1;size=0.14;arcSize=6;" vertex="1" parent="1">
          <mxGeometry x="1390" y="630" width="190" height="60" as="geometry" />
        </mxCell>
        <mxCell id="lCpcC6EXvAtzIv-ZnMlg-157" value="FindUserByUsername" style="text;strokeColor=none;align=center;fillColor=none;html=1;verticalAlign=middle;whiteSpace=wrap;rounded=0;" vertex="1" parent="1">
          <mxGeometry x="1455" y="645" width="60" height="30" as="geometry" />
        </mxCell>
        <mxCell id="lCpcC6EXvAtzIv-ZnMlg-165" style="edgeStyle=orthogonalEdgeStyle;rounded=0;orthogonalLoop=1;jettySize=auto;html=1;entryX=0.5;entryY=0;entryDx=0;entryDy=0;" edge="1" parent="1" source="lCpcC6EXvAtzIv-ZnMlg-159" target="lCpcC6EXvAtzIv-ZnMlg-164">
          <mxGeometry relative="1" as="geometry" />
        </mxCell>
        <mxCell id="lCpcC6EXvAtzIv-ZnMlg-166" value="user" style="edgeLabel;html=1;align=center;verticalAlign=middle;resizable=0;points=[];" vertex="1" connectable="0" parent="lCpcC6EXvAtzIv-ZnMlg-165">
          <mxGeometry x="0.2606" relative="1" as="geometry">
            <mxPoint as="offset" />
          </mxGeometry>
        </mxCell>
        <mxCell id="lCpcC6EXvAtzIv-ZnMlg-159" value="if user" style="rhombus;whiteSpace=wrap;html=1;" vertex="1" parent="1">
          <mxGeometry x="1445" y="730" width="80" height="80" as="geometry" />
        </mxCell>
        <mxCell id="lCpcC6EXvAtzIv-ZnMlg-160" style="edgeStyle=orthogonalEdgeStyle;rounded=0;orthogonalLoop=1;jettySize=auto;html=1;" edge="1" parent="1" source="lCpcC6EXvAtzIv-ZnMlg-146" target="lCpcC6EXvAtzIv-ZnMlg-156">
          <mxGeometry relative="1" as="geometry" />
        </mxCell>
        <mxCell id="lCpcC6EXvAtzIv-ZnMlg-177" style="edgeStyle=orthogonalEdgeStyle;rounded=0;orthogonalLoop=1;jettySize=auto;html=1;" edge="1" parent="1" source="lCpcC6EXvAtzIv-ZnMlg-161">
          <mxGeometry relative="1" as="geometry">
            <mxPoint x="1590" y="1100" as="targetPoint" />
          </mxGeometry>
        </mxCell>
        <mxCell id="lCpcC6EXvAtzIv-ZnMlg-161" value="Username tidak ditemukan" style="strokeWidth=2;html=1;shape=mxgraph.flowchart.display;whiteSpace=wrap;" vertex="1" parent="1">
          <mxGeometry x="1540" y="810" width="100" height="60" as="geometry" />
        </mxCell>
        <mxCell id="lCpcC6EXvAtzIv-ZnMlg-162" style="edgeStyle=orthogonalEdgeStyle;rounded=0;orthogonalLoop=1;jettySize=auto;html=1;exitX=1;exitY=0.5;exitDx=0;exitDy=0;entryX=0.545;entryY=-0.008;entryDx=0;entryDy=0;entryPerimeter=0;" edge="1" parent="1" source="lCpcC6EXvAtzIv-ZnMlg-159" target="lCpcC6EXvAtzIv-ZnMlg-161">
          <mxGeometry relative="1" as="geometry" />
        </mxCell>
        <mxCell id="lCpcC6EXvAtzIv-ZnMlg-163" value="none" style="edgeLabel;html=1;align=center;verticalAlign=middle;resizable=0;points=[];" vertex="1" connectable="0" parent="lCpcC6EXvAtzIv-ZnMlg-162">
          <mxGeometry x="-0.1286" y="1" relative="1" as="geometry">
            <mxPoint y="1" as="offset" />
          </mxGeometry>
        </mxCell>
        <mxCell id="lCpcC6EXvAtzIv-ZnMlg-170" style="edgeStyle=orthogonalEdgeStyle;rounded=0;orthogonalLoop=1;jettySize=auto;html=1;entryX=0.5;entryY=0;entryDx=0;entryDy=0;" edge="1" parent="1" source="lCpcC6EXvAtzIv-ZnMlg-164" target="lCpcC6EXvAtzIv-ZnMlg-167">
          <mxGeometry relative="1" as="geometry" />
        </mxCell>
        <mxCell id="lCpcC6EXvAtzIv-ZnMlg-171" value="match" style="edgeLabel;html=1;align=center;verticalAlign=middle;resizable=0;points=[];" vertex="1" connectable="0" parent="lCpcC6EXvAtzIv-ZnMlg-170">
          <mxGeometry x="-0.3556" relative="1" as="geometry">
            <mxPoint as="offset" />
          </mxGeometry>
        </mxCell>
        <mxCell id="lCpcC6EXvAtzIv-ZnMlg-175" style="edgeStyle=orthogonalEdgeStyle;rounded=0;orthogonalLoop=1;jettySize=auto;html=1;exitX=1;exitY=0.5;exitDx=0;exitDy=0;entryX=0.5;entryY=0;entryDx=0;entryDy=0;" edge="1" parent="1" source="lCpcC6EXvAtzIv-ZnMlg-164" target="lCpcC6EXvAtzIv-ZnMlg-172">
          <mxGeometry relative="1" as="geometry" />
        </mxCell>
        <mxCell id="lCpcC6EXvAtzIv-ZnMlg-176" value="false" style="edgeLabel;html=1;align=center;verticalAlign=middle;resizable=0;points=[];" vertex="1" connectable="0" parent="lCpcC6EXvAtzIv-ZnMlg-175">
          <mxGeometry x="0.157" y="-1" relative="1" as="geometry">
            <mxPoint as="offset" />
          </mxGeometry>
        </mxCell>
        <mxCell id="lCpcC6EXvAtzIv-ZnMlg-164" value="if password ==&lt;div&gt;user.password&lt;/div&gt;" style="rhombus;whiteSpace=wrap;html=1;" vertex="1" parent="1">
          <mxGeometry x="1420" y="880" width="105" height="105" as="geometry" />
        </mxCell>
        <mxCell id="lCpcC6EXvAtzIv-ZnMlg-174" style="edgeStyle=orthogonalEdgeStyle;rounded=0;orthogonalLoop=1;jettySize=auto;html=1;entryX=0;entryY=0.5;entryDx=0;entryDy=0;exitX=0.5;exitY=1;exitDx=0;exitDy=0;" edge="1" parent="1" source="lCpcC6EXvAtzIv-ZnMlg-167" target="lCpcC6EXvAtzIv-ZnMlg-172">
          <mxGeometry relative="1" as="geometry">
            <Array as="points">
              <mxPoint x="1473" y="1130" />
            </Array>
          </mxGeometry>
        </mxCell>
        <mxCell id="lCpcC6EXvAtzIv-ZnMlg-178" value="user, true" style="edgeLabel;html=1;align=center;verticalAlign=middle;resizable=0;points=[];" vertex="1" connectable="0" parent="lCpcC6EXvAtzIv-ZnMlg-174">
          <mxGeometry x="-0.3617" relative="1" as="geometry">
            <mxPoint as="offset" />
          </mxGeometry>
        </mxCell>
        <mxCell id="lCpcC6EXvAtzIv-ZnMlg-167" value="" style="verticalLabelPosition=bottom;verticalAlign=top;html=1;shape=process;whiteSpace=wrap;rounded=1;size=0.14;arcSize=6;" vertex="1" parent="1">
          <mxGeometry x="1407.5" y="1020" width="130" height="60" as="geometry" />
        </mxCell>
        <mxCell id="lCpcC6EXvAtzIv-ZnMlg-168" value="&lt;font style=&quot;font-size: 9px;&quot;&gt;SetLoggedInUsername&lt;/font&gt;" style="text;strokeColor=none;align=center;fillColor=none;html=1;verticalAlign=middle;whiteSpace=wrap;rounded=0;" vertex="1" parent="1">
          <mxGeometry x="1442.5" y="1035" width="60" height="30" as="geometry" />
        </mxCell>
        <mxCell id="lCpcC6EXvAtzIv-ZnMlg-172" value="" style="verticalLabelPosition=bottom;verticalAlign=top;html=1;shape=process;whiteSpace=wrap;rounded=1;size=0.14;arcSize=6;" vertex="1" parent="1">
          <mxGeometry x="1540" y="1100" width="100" height="60" as="geometry" />
        </mxCell>
        <mxCell id="lCpcC6EXvAtzIv-ZnMlg-173" value="Login Logic" style="text;strokeColor=none;align=center;fillColor=none;html=1;verticalAlign=middle;whiteSpace=wrap;rounded=0;" vertex="1" parent="1">
          <mxGeometry x="1560" y="1115" width="60" height="30" as="geometry" />
        </mxCell>
        <mxCell id="lCpcC6EXvAtzIv-ZnMlg-182" style="edgeStyle=orthogonalEdgeStyle;rounded=0;orthogonalLoop=1;jettySize=auto;html=1;entryX=0.5;entryY=0;entryDx=0;entryDy=0;" edge="1" parent="1" source="lCpcC6EXvAtzIv-ZnMlg-179" target="lCpcC6EXvAtzIv-ZnMlg-181">
          <mxGeometry relative="1" as="geometry" />
        </mxCell>
        <mxCell id="lCpcC6EXvAtzIv-ZnMlg-179" value="" style="verticalLabelPosition=bottom;verticalAlign=top;html=1;shape=process;whiteSpace=wrap;rounded=1;size=0.14;arcSize=6;" vertex="1" parent="1">
          <mxGeometry x="1770" y="745" width="130" height="60" as="geometry" />
        </mxCell>
        <mxCell id="lCpcC6EXvAtzIv-ZnMlg-180" value="&lt;font style=&quot;font-size: 9px;&quot;&gt;SetLoggedInUsername&lt;/font&gt;" style="text;strokeColor=none;align=center;fillColor=none;html=1;verticalAlign=middle;whiteSpace=wrap;rounded=0;" vertex="1" parent="1">
          <mxGeometry x="1805" y="760" width="60" height="30" as="geometry" />
        </mxCell>
        <mxCell id="lCpcC6EXvAtzIv-ZnMlg-184" style="edgeStyle=orthogonalEdgeStyle;rounded=0;orthogonalLoop=1;jettySize=auto;html=1;exitX=0.5;exitY=1;exitDx=0;exitDy=0;entryX=0.5;entryY=0;entryDx=0;entryDy=0;" edge="1" parent="1" source="lCpcC6EXvAtzIv-ZnMlg-181" target="lCpcC6EXvAtzIv-ZnMlg-183">
          <mxGeometry relative="1" as="geometry" />
        </mxCell>
        <mxCell id="lCpcC6EXvAtzIv-ZnMlg-181" value="loggedInUsername" style="shape=internalStorage;whiteSpace=wrap;html=1;dx=15;dy=15;rounded=1;arcSize=8;strokeWidth=2;" vertex="1" parent="1">
          <mxGeometry x="1759" y="845" width="152" height="70" as="geometry" />
        </mxCell>
        <mxCell id="lCpcC6EXvAtzIv-ZnMlg-187" style="edgeStyle=orthogonalEdgeStyle;rounded=0;orthogonalLoop=1;jettySize=auto;html=1;exitX=0.5;exitY=1;exitDx=0;exitDy=0;entryX=0.5;entryY=0;entryDx=0;entryDy=0;" edge="1" parent="1" source="lCpcC6EXvAtzIv-ZnMlg-183" target="lCpcC6EXvAtzIv-ZnMlg-185">
          <mxGeometry relative="1" as="geometry" />
        </mxCell>
        <mxCell id="lCpcC6EXvAtzIv-ZnMlg-183" value="Set username&lt;div&gt;&amp;nbsp;into LoggedInUsername&lt;/div&gt;" style="rounded=1;whiteSpace=wrap;html=1;absoluteArcSize=1;arcSize=14;strokeWidth=2;" vertex="1" parent="1">
          <mxGeometry x="1776.5" y="940" width="117" height="100" as="geometry" />
        </mxCell>
        <mxCell id="lCpcC6EXvAtzIv-ZnMlg-185" value="" style="verticalLabelPosition=bottom;verticalAlign=top;html=1;shape=process;whiteSpace=wrap;rounded=1;size=0.14;arcSize=6;" vertex="1" parent="1">
          <mxGeometry x="1770" y="1080" width="130" height="60" as="geometry" />
        </mxCell>
        <mxCell id="lCpcC6EXvAtzIv-ZnMlg-186" value="&lt;font style=&quot;font-size: 9px;&quot;&gt;SetLoggedInUsername&lt;/font&gt;" style="text;strokeColor=none;align=center;fillColor=none;html=1;verticalAlign=middle;whiteSpace=wrap;rounded=0;" vertex="1" parent="1">
          <mxGeometry x="1805" y="1095" width="60" height="30" as="geometry" />
        </mxCell>
        <mxCell id="lCpcC6EXvAtzIv-ZnMlg-189" value="" style="verticalLabelPosition=bottom;verticalAlign=top;html=1;shape=process;whiteSpace=wrap;rounded=1;size=0.14;arcSize=6;" vertex="1" parent="1">
          <mxGeometry x="160" y="850" width="100" height="60" as="geometry" />
        </mxCell>
        <mxCell id="lCpcC6EXvAtzIv-ZnMlg-190" value="Handle Menu" style="text;strokeColor=none;align=center;fillColor=none;html=1;verticalAlign=middle;whiteSpace=wrap;rounded=0;" vertex="1" parent="1">
          <mxGeometry x="180" y="865" width="60" height="30" as="geometry" />
        </mxCell>
        <mxCell id="lCpcC6EXvAtzIv-ZnMlg-193" value="" style="verticalLabelPosition=bottom;verticalAlign=top;html=1;shape=process;whiteSpace=wrap;rounded=1;size=0.14;arcSize=6;" vertex="1" parent="1">
          <mxGeometry x="2610" y="120" width="100" height="60" as="geometry" />
        </mxCell>
        <mxCell id="lCpcC6EXvAtzIv-ZnMlg-194" value="Handle Menu" style="text;strokeColor=none;align=center;fillColor=none;html=1;verticalAlign=middle;whiteSpace=wrap;rounded=0;" vertex="1" parent="1">
          <mxGeometry x="2630" y="135" width="60" height="30" as="geometry" />
        </mxCell>
        <mxCell id="lCpcC6EXvAtzIv-ZnMlg-195" value="setLoggedInUsername&lt;div&gt;flowchart&lt;/div&gt;" style="text;strokeColor=none;align=center;fillColor=none;html=1;verticalAlign=middle;whiteSpace=wrap;rounded=0;" vertex="1" parent="1">
          <mxGeometry x="1805" y="705" width="60" height="30" as="geometry" />
        </mxCell>
        <mxCell id="lCpcC6EXvAtzIv-ZnMlg-205" style="edgeStyle=orthogonalEdgeStyle;rounded=0;orthogonalLoop=1;jettySize=auto;html=1;entryX=0.5;entryY=0;entryDx=0;entryDy=0;" edge="1" parent="1" source="lCpcC6EXvAtzIv-ZnMlg-206" target="lCpcC6EXvAtzIv-ZnMlg-209">
          <mxGeometry relative="1" as="geometry" />
        </mxCell>
        <mxCell id="lCpcC6EXvAtzIv-ZnMlg-206" value="" style="verticalLabelPosition=bottom;verticalAlign=top;html=1;shape=process;whiteSpace=wrap;rounded=1;size=0.14;arcSize=6;" vertex="1" parent="1">
          <mxGeometry x="2071" y="745" width="130" height="60" as="geometry" />
        </mxCell>
        <mxCell id="lCpcC6EXvAtzIv-ZnMlg-207" value="&lt;font style=&quot;font-size: 9px;&quot;&gt;GetLoggedInUsername&lt;/font&gt;" style="text;strokeColor=none;align=center;fillColor=none;html=1;verticalAlign=middle;whiteSpace=wrap;rounded=0;" vertex="1" parent="1">
          <mxGeometry x="2106" y="760" width="60" height="30" as="geometry" />
        </mxCell>
        <mxCell id="lCpcC6EXvAtzIv-ZnMlg-208" value="return username" style="edgeStyle=orthogonalEdgeStyle;rounded=0;orthogonalLoop=1;jettySize=auto;html=1;exitX=0.5;exitY=1;exitDx=0;exitDy=0;entryX=0.5;entryY=0;entryDx=0;entryDy=0;" edge="1" parent="1" source="lCpcC6EXvAtzIv-ZnMlg-209" target="lCpcC6EXvAtzIv-ZnMlg-212">
          <mxGeometry relative="1" as="geometry">
            <mxPoint x="2136" y="940" as="targetPoint" />
          </mxGeometry>
        </mxCell>
        <mxCell id="lCpcC6EXvAtzIv-ZnMlg-209" value="loggedInUsername" style="shape=internalStorage;whiteSpace=wrap;html=1;dx=15;dy=15;rounded=1;arcSize=8;strokeWidth=2;" vertex="1" parent="1">
          <mxGeometry x="2060" y="845" width="152" height="70" as="geometry" />
        </mxCell>
        <mxCell id="lCpcC6EXvAtzIv-ZnMlg-212" value="" style="verticalLabelPosition=bottom;verticalAlign=top;html=1;shape=process;whiteSpace=wrap;rounded=1;size=0.14;arcSize=6;" vertex="1" parent="1">
          <mxGeometry x="2071" y="980" width="130" height="60" as="geometry" />
        </mxCell>
        <mxCell id="lCpcC6EXvAtzIv-ZnMlg-213" value="&lt;font style=&quot;font-size: 9px;&quot;&gt;GetLoggedInUsername&lt;/font&gt;" style="text;strokeColor=none;align=center;fillColor=none;html=1;verticalAlign=middle;whiteSpace=wrap;rounded=0;" vertex="1" parent="1">
          <mxGeometry x="2106" y="995" width="60" height="30" as="geometry" />
        </mxCell>
        <mxCell id="lCpcC6EXvAtzIv-ZnMlg-214" value="&lt;div&gt;GetLoggedInUsername&lt;/div&gt;&lt;div&gt;flowchart&lt;/div&gt;" style="text;strokeColor=none;align=center;fillColor=none;html=1;verticalAlign=middle;whiteSpace=wrap;rounded=0;" vertex="1" parent="1">
          <mxGeometry x="2106" y="705" width="60" height="30" as="geometry" />
        </mxCell>
        <mxCell id="lCpcC6EXvAtzIv-ZnMlg-215" value="&lt;div&gt;HandleMenu&lt;/div&gt;&lt;div&gt;Flowchart&lt;/div&gt;" style="text;strokeColor=none;align=center;fillColor=none;html=1;verticalAlign=middle;whiteSpace=wrap;rounded=0;" vertex="1" parent="1">
          <mxGeometry x="2600" y="75" width="120" height="30" as="geometry" />
        </mxCell>
        <mxCell id="lCpcC6EXvAtzIv-ZnMlg-241" style="edgeStyle=orthogonalEdgeStyle;rounded=0;orthogonalLoop=1;jettySize=auto;html=1;entryX=0.5;entryY=0;entryDx=0;entryDy=0;" edge="1" parent="1" source="lCpcC6EXvAtzIv-ZnMlg-216" target="lCpcC6EXvAtzIv-ZnMlg-239">
          <mxGeometry relative="1" as="geometry" />
        </mxCell>
        <mxCell id="lCpcC6EXvAtzIv-ZnMlg-242" value="no" style="edgeLabel;html=1;align=center;verticalAlign=middle;resizable=0;points=[];" vertex="1" connectable="0" parent="lCpcC6EXvAtzIv-ZnMlg-241">
          <mxGeometry x="-0.1311" y="1" relative="1" as="geometry">
            <mxPoint as="offset" />
          </mxGeometry>
        </mxCell>
        <mxCell id="lCpcC6EXvAtzIv-ZnMlg-216" value="If Login" style="strokeWidth=2;html=1;shape=mxgraph.flowchart.decision;whiteSpace=wrap;" vertex="1" parent="1">
          <mxGeometry x="2610" y="220" width="100" height="100" as="geometry" />
        </mxCell>
        <mxCell id="lCpcC6EXvAtzIv-ZnMlg-217" style="edgeStyle=orthogonalEdgeStyle;rounded=0;orthogonalLoop=1;jettySize=auto;html=1;entryX=0.5;entryY=0;entryDx=0;entryDy=0;entryPerimeter=0;" edge="1" parent="1" source="lCpcC6EXvAtzIv-ZnMlg-193" target="lCpcC6EXvAtzIv-ZnMlg-216">
          <mxGeometry relative="1" as="geometry" />
        </mxCell>
        <mxCell id="lCpcC6EXvAtzIv-ZnMlg-224" style="edgeStyle=orthogonalEdgeStyle;rounded=0;orthogonalLoop=1;jettySize=auto;html=1;exitX=0;exitY=0.5;exitDx=0;exitDy=0;exitPerimeter=0;entryX=1;entryY=0.5;entryDx=0;entryDy=0;" edge="1" parent="1" source="lCpcC6EXvAtzIv-ZnMlg-218" target="lCpcC6EXvAtzIv-ZnMlg-223">
          <mxGeometry relative="1" as="geometry" />
        </mxCell>
        <mxCell id="lCpcC6EXvAtzIv-ZnMlg-227" value="kurir" style="edgeLabel;html=1;align=center;verticalAlign=middle;resizable=0;points=[];" vertex="1" connectable="0" parent="lCpcC6EXvAtzIv-ZnMlg-224">
          <mxGeometry x="-0.0667" y="-1" relative="1" as="geometry">
            <mxPoint as="offset" />
          </mxGeometry>
        </mxCell>
        <mxCell id="lCpcC6EXvAtzIv-ZnMlg-225" value="admin" style="edgeStyle=orthogonalEdgeStyle;rounded=0;orthogonalLoop=1;jettySize=auto;html=1;exitX=1;exitY=0.5;exitDx=0;exitDy=0;exitPerimeter=0;" edge="1" parent="1" source="lCpcC6EXvAtzIv-ZnMlg-218" target="lCpcC6EXvAtzIv-ZnMlg-222">
          <mxGeometry relative="1" as="geometry" />
        </mxCell>
        <mxCell id="lCpcC6EXvAtzIv-ZnMlg-226" style="edgeStyle=orthogonalEdgeStyle;rounded=0;orthogonalLoop=1;jettySize=auto;html=1;exitX=0.5;exitY=1;exitDx=0;exitDy=0;exitPerimeter=0;entryX=0.5;entryY=0;entryDx=0;entryDy=0;" edge="1" parent="1" source="lCpcC6EXvAtzIv-ZnMlg-218" target="lCpcC6EXvAtzIv-ZnMlg-221">
          <mxGeometry relative="1" as="geometry" />
        </mxCell>
        <mxCell id="lCpcC6EXvAtzIv-ZnMlg-228" value="user" style="edgeLabel;html=1;align=center;verticalAlign=middle;resizable=0;points=[];" vertex="1" connectable="0" parent="lCpcC6EXvAtzIv-ZnMlg-226">
          <mxGeometry x="-0.05" y="1" relative="1" as="geometry">
            <mxPoint as="offset" />
          </mxGeometry>
        </mxCell>
        <mxCell id="lCpcC6EXvAtzIv-ZnMlg-218" value="user.role" style="strokeWidth=2;html=1;shape=mxgraph.flowchart.decision;whiteSpace=wrap;" vertex="1" parent="1">
          <mxGeometry x="2920" y="302" width="100" height="100" as="geometry" />
        </mxCell>
        <mxCell id="lCpcC6EXvAtzIv-ZnMlg-219" style="edgeStyle=orthogonalEdgeStyle;rounded=0;orthogonalLoop=1;jettySize=auto;html=1;exitX=1;exitY=0.5;exitDx=0;exitDy=0;exitPerimeter=0;entryX=0.5;entryY=0;entryDx=0;entryDy=0;entryPerimeter=0;" edge="1" parent="1" source="lCpcC6EXvAtzIv-ZnMlg-216" target="lCpcC6EXvAtzIv-ZnMlg-218">
          <mxGeometry relative="1" as="geometry" />
        </mxCell>
        <mxCell id="lCpcC6EXvAtzIv-ZnMlg-220" value="yes" style="edgeLabel;html=1;align=center;verticalAlign=middle;resizable=0;points=[];" vertex="1" connectable="0" parent="lCpcC6EXvAtzIv-ZnMlg-219">
          <mxGeometry x="0.0367" y="2" relative="1" as="geometry">
            <mxPoint as="offset" />
          </mxGeometry>
        </mxCell>
        <mxCell id="lCpcC6EXvAtzIv-ZnMlg-237" style="edgeStyle=orthogonalEdgeStyle;rounded=0;orthogonalLoop=1;jettySize=auto;html=1;exitX=0.5;exitY=1;exitDx=0;exitDy=0;entryX=0.5;entryY=0;entryDx=0;entryDy=0;" edge="1" parent="1" source="lCpcC6EXvAtzIv-ZnMlg-221" target="lCpcC6EXvAtzIv-ZnMlg-233">
          <mxGeometry relative="1" as="geometry">
            <Array as="points">
              <mxPoint x="2965" y="522" />
            </Array>
          </mxGeometry>
        </mxCell>
        <mxCell id="lCpcC6EXvAtzIv-ZnMlg-221" value="" style="verticalLabelPosition=bottom;verticalAlign=top;html=1;shape=process;whiteSpace=wrap;rounded=1;size=0.14;arcSize=6;" vertex="1" parent="1">
          <mxGeometry x="2920" y="462" width="100" height="60" as="geometry" />
        </mxCell>
        <mxCell id="lCpcC6EXvAtzIv-ZnMlg-238" style="edgeStyle=orthogonalEdgeStyle;rounded=0;orthogonalLoop=1;jettySize=auto;html=1;exitX=0.5;exitY=1;exitDx=0;exitDy=0;entryX=0.5;entryY=0;entryDx=0;entryDy=0;" edge="1" parent="1" source="lCpcC6EXvAtzIv-ZnMlg-222" target="lCpcC6EXvAtzIv-ZnMlg-233">
          <mxGeometry relative="1" as="geometry">
            <Array as="points">
              <mxPoint x="3140" y="580" />
              <mxPoint x="2965" y="580" />
            </Array>
          </mxGeometry>
        </mxCell>
        <mxCell id="lCpcC6EXvAtzIv-ZnMlg-222" value="" style="verticalLabelPosition=bottom;verticalAlign=top;html=1;shape=process;whiteSpace=wrap;rounded=1;size=0.14;arcSize=6;" vertex="1" parent="1">
          <mxGeometry x="3090" y="322" width="100" height="60" as="geometry" />
        </mxCell>
        <mxCell id="lCpcC6EXvAtzIv-ZnMlg-236" style="edgeStyle=orthogonalEdgeStyle;rounded=0;orthogonalLoop=1;jettySize=auto;html=1;entryX=0.5;entryY=0;entryDx=0;entryDy=0;" edge="1" parent="1" source="lCpcC6EXvAtzIv-ZnMlg-223" target="lCpcC6EXvAtzIv-ZnMlg-233">
          <mxGeometry relative="1" as="geometry">
            <Array as="points">
              <mxPoint x="2810" y="580" />
              <mxPoint x="2965" y="580" />
            </Array>
          </mxGeometry>
        </mxCell>
        <mxCell id="lCpcC6EXvAtzIv-ZnMlg-223" value="" style="verticalLabelPosition=bottom;verticalAlign=top;html=1;shape=process;whiteSpace=wrap;rounded=1;size=0.14;arcSize=6;" vertex="1" parent="1">
          <mxGeometry x="2760" y="322" width="100" height="60" as="geometry" />
        </mxCell>
        <mxCell id="lCpcC6EXvAtzIv-ZnMlg-229" value="MenuUser" style="text;strokeColor=none;align=center;fillColor=none;html=1;verticalAlign=middle;whiteSpace=wrap;rounded=0;" vertex="1" parent="1">
          <mxGeometry x="2940" y="480" width="60" height="30" as="geometry" />
        </mxCell>
        <mxCell id="lCpcC6EXvAtzIv-ZnMlg-230" value="MenuAdmin" style="text;strokeColor=none;align=center;fillColor=none;html=1;verticalAlign=middle;whiteSpace=wrap;rounded=0;" vertex="1" parent="1">
          <mxGeometry x="3110" y="337" width="60" height="30" as="geometry" />
        </mxCell>
        <mxCell id="lCpcC6EXvAtzIv-ZnMlg-231" value="MenuKurir" style="text;strokeColor=none;align=center;fillColor=none;html=1;verticalAlign=middle;whiteSpace=wrap;rounded=0;" vertex="1" parent="1">
          <mxGeometry x="2780" y="337" width="60" height="30" as="geometry" />
        </mxCell>
        <mxCell id="lCpcC6EXvAtzIv-ZnMlg-232" value="" style="group" vertex="1" connectable="0" parent="1">
          <mxGeometry x="2860" y="660" width="210" height="60" as="geometry" />
        </mxCell>
        <mxCell id="lCpcC6EXvAtzIv-ZnMlg-233" value="" style="verticalLabelPosition=bottom;verticalAlign=top;html=1;shape=process;whiteSpace=wrap;rounded=1;size=0.14;arcSize=6;" vertex="1" parent="lCpcC6EXvAtzIv-ZnMlg-232">
          <mxGeometry width="210.00000000000006" height="60" as="geometry" />
        </mxCell>
        <mxCell id="lCpcC6EXvAtzIv-ZnMlg-234" value="" style="group" vertex="1" connectable="0" parent="lCpcC6EXvAtzIv-ZnMlg-232">
          <mxGeometry x="41.08446640316207" y="7.5" width="127.82608695652178" height="45" as="geometry" />
        </mxCell>
        <mxCell id="lCpcC6EXvAtzIv-ZnMlg-235" value="Pilih menu:&lt;div&gt;Input Logic&lt;/div&gt;" style="text;strokeColor=none;align=center;fillColor=none;html=1;verticalAlign=middle;whiteSpace=wrap;rounded=0;" vertex="1" parent="lCpcC6EXvAtzIv-ZnMlg-234">
          <mxGeometry y="18.75" width="127.82608695652178" height="7.5" as="geometry" />
        </mxCell>
        <mxCell id="lCpcC6EXvAtzIv-ZnMlg-239" value="" style="verticalLabelPosition=bottom;verticalAlign=top;html=1;shape=process;whiteSpace=wrap;rounded=1;size=0.14;arcSize=6;" vertex="1" parent="1">
          <mxGeometry x="2610" y="1050" width="100" height="60" as="geometry" />
        </mxCell>
        <mxCell id="lCpcC6EXvAtzIv-ZnMlg-240" value="Handle Menu" style="text;strokeColor=none;align=center;fillColor=none;html=1;verticalAlign=middle;whiteSpace=wrap;rounded=0;" vertex="1" parent="1">
          <mxGeometry x="2630" y="1065" width="60" height="30" as="geometry" />
        </mxCell>
        <mxCell id="lCpcC6EXvAtzIv-ZnMlg-245" style="edgeStyle=orthogonalEdgeStyle;rounded=0;orthogonalLoop=1;jettySize=auto;html=1;exitX=0;exitY=0.5;exitDx=0;exitDy=0;exitPerimeter=0;entryX=1;entryY=0.5;entryDx=0;entryDy=0;" edge="1" parent="1" source="lCpcC6EXvAtzIv-ZnMlg-243" target="lCpcC6EXvAtzIv-ZnMlg-239">
          <mxGeometry relative="1" as="geometry" />
        </mxCell>
        <mxCell id="lCpcC6EXvAtzIv-ZnMlg-246" value="yes" style="edgeLabel;html=1;align=center;verticalAlign=middle;resizable=0;points=[];" vertex="1" connectable="0" parent="lCpcC6EXvAtzIv-ZnMlg-245">
          <mxGeometry x="0.0293" y="-1" relative="1" as="geometry">
            <mxPoint as="offset" />
          </mxGeometry>
        </mxCell>
        <mxCell id="lCpcC6EXvAtzIv-ZnMlg-248" style="edgeStyle=orthogonalEdgeStyle;rounded=0;orthogonalLoop=1;jettySize=auto;html=1;entryX=0;entryY=0.5;entryDx=0;entryDy=0;entryPerimeter=0;" edge="1" parent="1" source="lCpcC6EXvAtzIv-ZnMlg-243" target="lCpcC6EXvAtzIv-ZnMlg-247">
          <mxGeometry relative="1" as="geometry">
            <Array as="points">
              <mxPoint x="3190" y="860" />
              <mxPoint x="3190" y="540" />
            </Array>
          </mxGeometry>
        </mxCell>
        <mxCell id="lCpcC6EXvAtzIv-ZnMlg-249" value="no" style="edgeLabel;html=1;align=center;verticalAlign=middle;resizable=0;points=[];" vertex="1" connectable="0" parent="lCpcC6EXvAtzIv-ZnMlg-248">
          <mxGeometry x="-0.2085" y="-3" relative="1" as="geometry">
            <mxPoint as="offset" />
          </mxGeometry>
        </mxCell>
        <mxCell id="lCpcC6EXvAtzIv-ZnMlg-243" value="if input == 0" style="strokeWidth=2;html=1;shape=mxgraph.flowchart.decision;whiteSpace=wrap;" vertex="1" parent="1">
          <mxGeometry x="2915" y="810" width="100" height="100" as="geometry" />
        </mxCell>
        <mxCell id="lCpcC6EXvAtzIv-ZnMlg-244" style="edgeStyle=orthogonalEdgeStyle;rounded=0;orthogonalLoop=1;jettySize=auto;html=1;entryX=0.5;entryY=0;entryDx=0;entryDy=0;entryPerimeter=0;" edge="1" parent="1" source="lCpcC6EXvAtzIv-ZnMlg-233" target="lCpcC6EXvAtzIv-ZnMlg-243">
          <mxGeometry relative="1" as="geometry" />
        </mxCell>
        <mxCell id="lCpcC6EXvAtzIv-ZnMlg-247" value="if role" style="strokeWidth=2;html=1;shape=mxgraph.flowchart.decision;whiteSpace=wrap;" vertex="1" parent="1">
          <mxGeometry x="3270" y="490" width="100" height="100" as="geometry" />
        </mxCell>
        <mxCell id="lCpcC6EXvAtzIv-ZnMlg-255" style="edgeStyle=orthogonalEdgeStyle;rounded=0;orthogonalLoop=1;jettySize=auto;html=1;exitX=0.5;exitY=0;exitDx=0;exitDy=0;exitPerimeter=0;entryX=0;entryY=0.5;entryDx=0;entryDy=0;" edge="1" parent="1" source="lCpcC6EXvAtzIv-ZnMlg-250" target="lCpcC6EXvAtzIv-ZnMlg-253">
          <mxGeometry relative="1" as="geometry" />
        </mxCell>
        <mxCell id="lCpcC6EXvAtzIv-ZnMlg-256" value="1" style="edgeLabel;html=1;align=center;verticalAlign=middle;resizable=0;points=[];" vertex="1" connectable="0" parent="lCpcC6EXvAtzIv-ZnMlg-255">
          <mxGeometry x="-0.4778" relative="1" as="geometry">
            <mxPoint as="offset" />
          </mxGeometry>
        </mxCell>
        <mxCell id="lCpcC6EXvAtzIv-ZnMlg-259" style="edgeStyle=orthogonalEdgeStyle;rounded=0;orthogonalLoop=1;jettySize=auto;html=1;exitX=1;exitY=0.5;exitDx=0;exitDy=0;exitPerimeter=0;entryX=0;entryY=0.5;entryDx=0;entryDy=0;" edge="1" parent="1" source="lCpcC6EXvAtzIv-ZnMlg-250" target="lCpcC6EXvAtzIv-ZnMlg-257">
          <mxGeometry relative="1" as="geometry" />
        </mxCell>
        <mxCell id="lCpcC6EXvAtzIv-ZnMlg-262" value="2" style="edgeLabel;html=1;align=center;verticalAlign=middle;resizable=0;points=[];" vertex="1" connectable="0" parent="lCpcC6EXvAtzIv-ZnMlg-259">
          <mxGeometry x="0.0175" y="1" relative="1" as="geometry">
            <mxPoint as="offset" />
          </mxGeometry>
        </mxCell>
        <mxCell id="lCpcC6EXvAtzIv-ZnMlg-263" style="edgeStyle=orthogonalEdgeStyle;rounded=0;orthogonalLoop=1;jettySize=auto;html=1;exitX=0.5;exitY=1;exitDx=0;exitDy=0;exitPerimeter=0;entryX=0;entryY=0.5;entryDx=0;entryDy=0;" edge="1" parent="1" source="lCpcC6EXvAtzIv-ZnMlg-250" target="lCpcC6EXvAtzIv-ZnMlg-260">
          <mxGeometry relative="1" as="geometry">
            <mxPoint x="3460.5" y="434.9999999999999" as="sourcePoint" />
          </mxGeometry>
        </mxCell>
        <mxCell id="lCpcC6EXvAtzIv-ZnMlg-264" value="not 1 or 2" style="edgeLabel;html=1;align=center;verticalAlign=middle;resizable=0;points=[];" vertex="1" connectable="0" parent="lCpcC6EXvAtzIv-ZnMlg-263">
          <mxGeometry x="-0.1744" y="-1" relative="1" as="geometry">
            <mxPoint x="-18" y="-1" as="offset" />
          </mxGeometry>
        </mxCell>
        <mxCell id="lCpcC6EXvAtzIv-ZnMlg-250" value="if input" style="strokeWidth=2;html=1;shape=mxgraph.flowchart.decision;whiteSpace=wrap;" vertex="1" parent="1">
          <mxGeometry x="3360" y="320" width="100" height="100" as="geometry" />
        </mxCell>
        <mxCell id="lCpcC6EXvAtzIv-ZnMlg-251" style="edgeStyle=orthogonalEdgeStyle;rounded=0;orthogonalLoop=1;jettySize=auto;html=1;entryX=0;entryY=0.5;entryDx=0;entryDy=0;entryPerimeter=0;" edge="1" parent="1" source="lCpcC6EXvAtzIv-ZnMlg-247" target="lCpcC6EXvAtzIv-ZnMlg-250">
          <mxGeometry relative="1" as="geometry" />
        </mxCell>
        <mxCell id="lCpcC6EXvAtzIv-ZnMlg-252" value="user" style="edgeLabel;html=1;align=center;verticalAlign=middle;resizable=0;points=[];" vertex="1" connectable="0" parent="lCpcC6EXvAtzIv-ZnMlg-251">
          <mxGeometry x="-0.3187" y="-1" relative="1" as="geometry">
            <mxPoint as="offset" />
          </mxGeometry>
        </mxCell>
        <mxCell id="lCpcC6EXvAtzIv-ZnMlg-253" value="" style="verticalLabelPosition=bottom;verticalAlign=top;html=1;shape=process;whiteSpace=wrap;rounded=1;size=0.14;arcSize=6;" vertex="1" parent="1">
          <mxGeometry x="3511" y="115" width="100" height="60" as="geometry" />
        </mxCell>
        <mxCell id="lCpcC6EXvAtzIv-ZnMlg-254" value="TambahPaket" style="text;strokeColor=none;align=center;fillColor=none;html=1;verticalAlign=middle;whiteSpace=wrap;rounded=0;" vertex="1" parent="1">
          <mxGeometry x="3531" y="130" width="60" height="30" as="geometry" />
        </mxCell>
        <mxCell id="lCpcC6EXvAtzIv-ZnMlg-257" value="" style="verticalLabelPosition=bottom;verticalAlign=top;html=1;shape=process;whiteSpace=wrap;rounded=1;size=0.14;arcSize=6;" vertex="1" parent="1">
          <mxGeometry x="3511" y="219" width="100" height="60" as="geometry" />
        </mxCell>
        <mxCell id="lCpcC6EXvAtzIv-ZnMlg-258" value="CekPaket" style="text;strokeColor=none;align=center;fillColor=none;html=1;verticalAlign=middle;whiteSpace=wrap;rounded=0;" vertex="1" parent="1">
          <mxGeometry x="3531" y="235" width="60" height="30" as="geometry" />
        </mxCell>
        <mxCell id="lCpcC6EXvAtzIv-ZnMlg-260" value="" style="verticalLabelPosition=bottom;verticalAlign=top;html=1;shape=process;whiteSpace=wrap;rounded=1;size=0.14;arcSize=6;" vertex="1" parent="1">
          <mxGeometry x="3561.5" y="320" width="100" height="60" as="geometry" />
        </mxCell>
        <mxCell id="lCpcC6EXvAtzIv-ZnMlg-261" value="MenuUser" style="text;strokeColor=none;align=center;fillColor=none;html=1;verticalAlign=middle;whiteSpace=wrap;rounded=0;" vertex="1" parent="1">
          <mxGeometry x="3581.5" y="336" width="60" height="30" as="geometry" />
        </mxCell>
        <mxCell id="lCpcC6EXvAtzIv-ZnMlg-265" style="edgeStyle=orthogonalEdgeStyle;rounded=0;orthogonalLoop=1;jettySize=auto;html=1;exitX=1;exitY=0.5;exitDx=0;exitDy=0;exitPerimeter=0;entryX=0;entryY=0.5;entryDx=0;entryDy=0;" edge="1" parent="1" target="lCpcC6EXvAtzIv-ZnMlg-271" source="lCpcC6EXvAtzIv-ZnMlg-277">
          <mxGeometry relative="1" as="geometry">
            <mxPoint x="3500" y="790" as="sourcePoint" />
          </mxGeometry>
        </mxCell>
        <mxCell id="lCpcC6EXvAtzIv-ZnMlg-266" value="1" style="edgeLabel;html=1;align=center;verticalAlign=middle;resizable=0;points=[];" vertex="1" connectable="0" parent="lCpcC6EXvAtzIv-ZnMlg-265">
          <mxGeometry x="-0.4778" relative="1" as="geometry">
            <mxPoint x="55" y="-135" as="offset" />
          </mxGeometry>
        </mxCell>
        <mxCell id="lCpcC6EXvAtzIv-ZnMlg-267" style="edgeStyle=orthogonalEdgeStyle;rounded=0;orthogonalLoop=1;jettySize=auto;html=1;exitX=1;exitY=0.5;exitDx=0;exitDy=0;exitPerimeter=0;entryX=0;entryY=0.5;entryDx=0;entryDy=0;" edge="1" parent="1" target="lCpcC6EXvAtzIv-ZnMlg-273" source="lCpcC6EXvAtzIv-ZnMlg-277">
          <mxGeometry relative="1" as="geometry">
            <mxPoint x="3550" y="840" as="sourcePoint" />
          </mxGeometry>
        </mxCell>
        <mxCell id="lCpcC6EXvAtzIv-ZnMlg-268" value="3" style="edgeLabel;html=1;align=center;verticalAlign=middle;resizable=0;points=[];" vertex="1" connectable="0" parent="lCpcC6EXvAtzIv-ZnMlg-267">
          <mxGeometry x="0.0175" y="1" relative="1" as="geometry">
            <mxPoint x="41" y="11" as="offset" />
          </mxGeometry>
        </mxCell>
        <mxCell id="lCpcC6EXvAtzIv-ZnMlg-269" style="edgeStyle=orthogonalEdgeStyle;rounded=0;orthogonalLoop=1;jettySize=auto;html=1;entryX=0.5;entryY=0;entryDx=0;entryDy=0;exitX=0.5;exitY=1;exitDx=0;exitDy=0;exitPerimeter=0;" edge="1" parent="1" target="lCpcC6EXvAtzIv-ZnMlg-310" source="lCpcC6EXvAtzIv-ZnMlg-277">
          <mxGeometry relative="1" as="geometry">
            <mxPoint x="3440" y="810" as="sourcePoint" />
            <mxPoint x="3420" y="1020" as="targetPoint" />
            <Array as="points">
              <mxPoint x="3530" y="710" />
              <mxPoint x="3580" y="710" />
            </Array>
          </mxGeometry>
        </mxCell>
        <mxCell id="lCpcC6EXvAtzIv-ZnMlg-270" value="not 1 to 9" style="edgeLabel;html=1;align=center;verticalAlign=middle;resizable=0;points=[];" vertex="1" connectable="0" parent="lCpcC6EXvAtzIv-ZnMlg-269">
          <mxGeometry x="-0.1744" y="-1" relative="1" as="geometry">
            <mxPoint x="17" y="-1" as="offset" />
          </mxGeometry>
        </mxCell>
        <mxCell id="lCpcC6EXvAtzIv-ZnMlg-271" value="" style="verticalLabelPosition=bottom;verticalAlign=top;html=1;shape=process;whiteSpace=wrap;rounded=1;size=0.14;arcSize=6;" vertex="1" parent="1">
          <mxGeometry x="3780" y="455" width="100" height="60" as="geometry" />
        </mxCell>
        <mxCell id="lCpcC6EXvAtzIv-ZnMlg-272" value="TambahPaket" style="text;strokeColor=none;align=center;fillColor=none;html=1;verticalAlign=middle;whiteSpace=wrap;rounded=0;" vertex="1" parent="1">
          <mxGeometry x="3800" y="470" width="60" height="30" as="geometry" />
        </mxCell>
        <mxCell id="lCpcC6EXvAtzIv-ZnMlg-273" value="" style="verticalLabelPosition=bottom;verticalAlign=top;html=1;shape=process;whiteSpace=wrap;rounded=1;size=0.14;arcSize=6;" vertex="1" parent="1">
          <mxGeometry x="3780" y="615" width="100" height="60" as="geometry" />
        </mxCell>
        <mxCell id="lCpcC6EXvAtzIv-ZnMlg-274" value="EditPaket" style="text;strokeColor=none;align=center;fillColor=none;html=1;verticalAlign=middle;whiteSpace=wrap;rounded=0;" vertex="1" parent="1">
          <mxGeometry x="3800" y="631" width="60" height="30" as="geometry" />
        </mxCell>
        <mxCell id="lCpcC6EXvAtzIv-ZnMlg-282" style="edgeStyle=orthogonalEdgeStyle;rounded=0;orthogonalLoop=1;jettySize=auto;html=1;exitX=1;exitY=0.5;exitDx=0;exitDy=0;exitPerimeter=0;entryX=0;entryY=0.5;entryDx=0;entryDy=0;" edge="1" parent="1" source="lCpcC6EXvAtzIv-ZnMlg-277" target="lCpcC6EXvAtzIv-ZnMlg-280">
          <mxGeometry relative="1" as="geometry" />
        </mxCell>
        <mxCell id="lCpcC6EXvAtzIv-ZnMlg-283" value="2" style="edgeLabel;html=1;align=center;verticalAlign=middle;resizable=0;points=[];" vertex="1" connectable="0" parent="lCpcC6EXvAtzIv-ZnMlg-282">
          <mxGeometry x="0.6412" y="-1" relative="1" as="geometry">
            <mxPoint x="-12" y="-1" as="offset" />
          </mxGeometry>
        </mxCell>
        <mxCell id="lCpcC6EXvAtzIv-ZnMlg-294" style="edgeStyle=orthogonalEdgeStyle;rounded=0;orthogonalLoop=1;jettySize=auto;html=1;exitX=1;exitY=0.5;exitDx=0;exitDy=0;exitPerimeter=0;entryX=0;entryY=0.5;entryDx=0;entryDy=0;" edge="1" parent="1" source="lCpcC6EXvAtzIv-ZnMlg-277" target="lCpcC6EXvAtzIv-ZnMlg-286">
          <mxGeometry relative="1" as="geometry" />
        </mxCell>
        <mxCell id="lCpcC6EXvAtzIv-ZnMlg-295" style="edgeStyle=orthogonalEdgeStyle;rounded=0;orthogonalLoop=1;jettySize=auto;html=1;exitX=1;exitY=0.5;exitDx=0;exitDy=0;exitPerimeter=0;entryX=0;entryY=0.5;entryDx=0;entryDy=0;" edge="1" parent="1" source="lCpcC6EXvAtzIv-ZnMlg-277" target="lCpcC6EXvAtzIv-ZnMlg-291">
          <mxGeometry relative="1" as="geometry" />
        </mxCell>
        <mxCell id="lCpcC6EXvAtzIv-ZnMlg-297" style="edgeStyle=orthogonalEdgeStyle;rounded=0;orthogonalLoop=1;jettySize=auto;html=1;exitX=1;exitY=0.5;exitDx=0;exitDy=0;exitPerimeter=0;entryX=0;entryY=0.5;entryDx=0;entryDy=0;" edge="1" parent="1" source="lCpcC6EXvAtzIv-ZnMlg-277" target="lCpcC6EXvAtzIv-ZnMlg-288">
          <mxGeometry relative="1" as="geometry" />
        </mxCell>
        <mxCell id="lCpcC6EXvAtzIv-ZnMlg-307" style="edgeStyle=orthogonalEdgeStyle;rounded=0;orthogonalLoop=1;jettySize=auto;html=1;exitX=1;exitY=0.5;exitDx=0;exitDy=0;exitPerimeter=0;entryX=0;entryY=0.5;entryDx=0;entryDy=0;" edge="1" parent="1" source="lCpcC6EXvAtzIv-ZnMlg-277" target="lCpcC6EXvAtzIv-ZnMlg-300">
          <mxGeometry relative="1" as="geometry" />
        </mxCell>
        <mxCell id="lCpcC6EXvAtzIv-ZnMlg-308" style="edgeStyle=orthogonalEdgeStyle;rounded=0;orthogonalLoop=1;jettySize=auto;html=1;exitX=1;exitY=0.5;exitDx=0;exitDy=0;exitPerimeter=0;entryX=0;entryY=0.5;entryDx=0;entryDy=0;" edge="1" parent="1" source="lCpcC6EXvAtzIv-ZnMlg-277" target="lCpcC6EXvAtzIv-ZnMlg-305">
          <mxGeometry relative="1" as="geometry" />
        </mxCell>
        <mxCell id="lCpcC6EXvAtzIv-ZnMlg-309" style="edgeStyle=orthogonalEdgeStyle;rounded=0;orthogonalLoop=1;jettySize=auto;html=1;exitX=1;exitY=0.5;exitDx=0;exitDy=0;exitPerimeter=0;entryX=0;entryY=0.5;entryDx=0;entryDy=0;" edge="1" parent="1" source="lCpcC6EXvAtzIv-ZnMlg-277" target="lCpcC6EXvAtzIv-ZnMlg-302">
          <mxGeometry relative="1" as="geometry" />
        </mxCell>
        <mxCell id="lCpcC6EXvAtzIv-ZnMlg-277" value="if input" style="strokeWidth=2;html=1;shape=mxgraph.flowchart.decision;whiteSpace=wrap;" vertex="1" parent="1">
          <mxGeometry x="3480" y="570" width="100" height="100" as="geometry" />
        </mxCell>
        <mxCell id="lCpcC6EXvAtzIv-ZnMlg-278" style="edgeStyle=orthogonalEdgeStyle;rounded=0;orthogonalLoop=1;jettySize=auto;html=1;exitX=1;exitY=0.5;exitDx=0;exitDy=0;exitPerimeter=0;entryX=0.5;entryY=0;entryDx=0;entryDy=0;entryPerimeter=0;" edge="1" parent="1" source="lCpcC6EXvAtzIv-ZnMlg-247" target="lCpcC6EXvAtzIv-ZnMlg-277">
          <mxGeometry relative="1" as="geometry" />
        </mxCell>
        <mxCell id="lCpcC6EXvAtzIv-ZnMlg-280" value="" style="verticalLabelPosition=bottom;verticalAlign=top;html=1;shape=process;whiteSpace=wrap;rounded=1;size=0.14;arcSize=6;" vertex="1" parent="1">
          <mxGeometry x="3780" y="535" width="100" height="60" as="geometry" />
        </mxCell>
        <mxCell id="lCpcC6EXvAtzIv-ZnMlg-281" value="LihatAllPaket" style="text;strokeColor=none;align=center;fillColor=none;html=1;verticalAlign=middle;whiteSpace=wrap;rounded=0;" vertex="1" parent="1">
          <mxGeometry x="3800" y="550" width="60" height="30" as="geometry" />
        </mxCell>
        <mxCell id="lCpcC6EXvAtzIv-ZnMlg-284" value="4" style="edgeLabel;html=1;align=center;verticalAlign=middle;resizable=0;points=[];" vertex="1" connectable="0" parent="1">
          <mxGeometry x="3722" y="725.0000000000002" as="geometry">
            <mxPoint x="-2" y="-1" as="offset" />
          </mxGeometry>
        </mxCell>
        <mxCell id="lCpcC6EXvAtzIv-ZnMlg-285" value="6" style="edgeLabel;html=1;align=center;verticalAlign=middle;resizable=0;points=[];" vertex="1" connectable="0" parent="1">
          <mxGeometry x="3722.000000000001" y="884.9999999999993" as="geometry">
            <mxPoint x="-2" y="1" as="offset" />
          </mxGeometry>
        </mxCell>
        <mxCell id="lCpcC6EXvAtzIv-ZnMlg-286" value="" style="verticalLabelPosition=bottom;verticalAlign=top;html=1;shape=process;whiteSpace=wrap;rounded=1;size=0.14;arcSize=6;" vertex="1" parent="1">
          <mxGeometry x="3780" y="695" width="100" height="60" as="geometry" />
        </mxCell>
        <mxCell id="lCpcC6EXvAtzIv-ZnMlg-287" value="HapusPaket" style="text;strokeColor=none;align=center;fillColor=none;html=1;verticalAlign=middle;whiteSpace=wrap;rounded=0;" vertex="1" parent="1">
          <mxGeometry x="3800" y="710" width="60" height="30" as="geometry" />
        </mxCell>
        <mxCell id="lCpcC6EXvAtzIv-ZnMlg-288" value="" style="verticalLabelPosition=bottom;verticalAlign=top;html=1;shape=process;whiteSpace=wrap;rounded=1;size=0.14;arcSize=6;" vertex="1" parent="1">
          <mxGeometry x="3780" y="855" width="100" height="60" as="geometry" />
        </mxCell>
        <mxCell id="lCpcC6EXvAtzIv-ZnMlg-289" value="LihatKurir" style="text;strokeColor=none;align=center;fillColor=none;html=1;verticalAlign=middle;whiteSpace=wrap;rounded=0;" vertex="1" parent="1">
          <mxGeometry x="3800" y="871" width="60" height="30" as="geometry" />
        </mxCell>
        <mxCell id="lCpcC6EXvAtzIv-ZnMlg-290" value="5" style="edgeLabel;html=1;align=center;verticalAlign=middle;resizable=0;points=[];" vertex="1" connectable="0" parent="1">
          <mxGeometry x="3721.996666666666" y="805" as="geometry">
            <mxPoint x="-1" y="-3" as="offset" />
          </mxGeometry>
        </mxCell>
        <mxCell id="lCpcC6EXvAtzIv-ZnMlg-291" value="" style="verticalLabelPosition=bottom;verticalAlign=top;html=1;shape=process;whiteSpace=wrap;rounded=1;size=0.14;arcSize=6;" vertex="1" parent="1">
          <mxGeometry x="3780" y="775" width="100" height="60" as="geometry" />
        </mxCell>
        <mxCell id="lCpcC6EXvAtzIv-ZnMlg-292" value="TambahKurir" style="text;strokeColor=none;align=center;fillColor=none;html=1;verticalAlign=middle;whiteSpace=wrap;rounded=0;" vertex="1" parent="1">
          <mxGeometry x="3800" y="790" width="60" height="30" as="geometry" />
        </mxCell>
        <mxCell id="lCpcC6EXvAtzIv-ZnMlg-298" value="7" style="edgeLabel;html=1;align=center;verticalAlign=middle;resizable=0;points=[];" vertex="1" connectable="0" parent="1">
          <mxGeometry x="3722" y="970.0000000000002" as="geometry">
            <mxPoint x="-2" y="-1" as="offset" />
          </mxGeometry>
        </mxCell>
        <mxCell id="lCpcC6EXvAtzIv-ZnMlg-299" value="9" style="edgeLabel;html=1;align=center;verticalAlign=middle;resizable=0;points=[];" vertex="1" connectable="0" parent="1">
          <mxGeometry x="3722.000000000001" y="1129.9999999999993" as="geometry">
            <mxPoint x="-2" y="1" as="offset" />
          </mxGeometry>
        </mxCell>
        <mxCell id="lCpcC6EXvAtzIv-ZnMlg-300" value="" style="verticalLabelPosition=bottom;verticalAlign=top;html=1;shape=process;whiteSpace=wrap;rounded=1;size=0.14;arcSize=6;" vertex="1" parent="1">
          <mxGeometry x="3780" y="940" width="100" height="60" as="geometry" />
        </mxCell>
        <mxCell id="lCpcC6EXvAtzIv-ZnMlg-301" value="EditKurir" style="text;strokeColor=none;align=center;fillColor=none;html=1;verticalAlign=middle;whiteSpace=wrap;rounded=0;" vertex="1" parent="1">
          <mxGeometry x="3800" y="955" width="60" height="30" as="geometry" />
        </mxCell>
        <mxCell id="lCpcC6EXvAtzIv-ZnMlg-302" value="" style="verticalLabelPosition=bottom;verticalAlign=top;html=1;shape=process;whiteSpace=wrap;rounded=1;size=0.14;arcSize=6;" vertex="1" parent="1">
          <mxGeometry x="3780" y="1100" width="100" height="60" as="geometry" />
        </mxCell>
        <mxCell id="lCpcC6EXvAtzIv-ZnMlg-303" value="AssignPaket" style="text;strokeColor=none;align=center;fillColor=none;html=1;verticalAlign=middle;whiteSpace=wrap;rounded=0;" vertex="1" parent="1">
          <mxGeometry x="3800" y="1116" width="60" height="30" as="geometry" />
        </mxCell>
        <mxCell id="lCpcC6EXvAtzIv-ZnMlg-304" value="8" style="edgeLabel;html=1;align=center;verticalAlign=middle;resizable=0;points=[];" vertex="1" connectable="0" parent="1">
          <mxGeometry x="3721.996666666666" y="1050" as="geometry">
            <mxPoint x="-1" y="-3" as="offset" />
          </mxGeometry>
        </mxCell>
        <mxCell id="lCpcC6EXvAtzIv-ZnMlg-305" value="" style="verticalLabelPosition=bottom;verticalAlign=top;html=1;shape=process;whiteSpace=wrap;rounded=1;size=0.14;arcSize=6;" vertex="1" parent="1">
          <mxGeometry x="3780" y="1020" width="100" height="60" as="geometry" />
        </mxCell>
        <mxCell id="lCpcC6EXvAtzIv-ZnMlg-306" value="HapusKurir" style="text;strokeColor=none;align=center;fillColor=none;html=1;verticalAlign=middle;whiteSpace=wrap;rounded=0;" vertex="1" parent="1">
          <mxGeometry x="3800" y="1035" width="60" height="30" as="geometry" />
        </mxCell>
        <mxCell id="lCpcC6EXvAtzIv-ZnMlg-310" value="" style="verticalLabelPosition=bottom;verticalAlign=top;html=1;shape=process;whiteSpace=wrap;rounded=1;size=0.14;arcSize=6;" vertex="1" parent="1">
          <mxGeometry x="3530" y="780" width="100" height="60" as="geometry" />
        </mxCell>
        <mxCell id="lCpcC6EXvAtzIv-ZnMlg-311" value="MenuAdmin" style="text;strokeColor=none;align=center;fillColor=none;html=1;verticalAlign=middle;whiteSpace=wrap;rounded=0;" vertex="1" parent="1">
          <mxGeometry x="3550" y="795" width="60" height="30" as="geometry" />
        </mxCell>
        <mxCell id="lCpcC6EXvAtzIv-ZnMlg-327" style="edgeStyle=orthogonalEdgeStyle;rounded=0;orthogonalLoop=1;jettySize=auto;html=1;exitX=0.5;exitY=1;exitDx=0;exitDy=0;exitPerimeter=0;entryX=0.5;entryY=0;entryDx=0;entryDy=0;" edge="1" parent="1" source="lCpcC6EXvAtzIv-ZnMlg-318" target="lCpcC6EXvAtzIv-ZnMlg-319">
          <mxGeometry relative="1" as="geometry" />
        </mxCell>
        <mxCell id="lCpcC6EXvAtzIv-ZnMlg-328" value="1" style="edgeLabel;html=1;align=center;verticalAlign=middle;resizable=0;points=[];" vertex="1" connectable="0" parent="lCpcC6EXvAtzIv-ZnMlg-327">
          <mxGeometry x="0.2026" y="-1" relative="1" as="geometry">
            <mxPoint as="offset" />
          </mxGeometry>
        </mxCell>
        <mxCell id="lCpcC6EXvAtzIv-ZnMlg-329" style="edgeStyle=orthogonalEdgeStyle;rounded=0;orthogonalLoop=1;jettySize=auto;html=1;exitX=0.5;exitY=1;exitDx=0;exitDy=0;exitPerimeter=0;entryX=0.5;entryY=0;entryDx=0;entryDy=0;" edge="1" parent="1" source="lCpcC6EXvAtzIv-ZnMlg-318" target="lCpcC6EXvAtzIv-ZnMlg-321">
          <mxGeometry relative="1" as="geometry" />
        </mxCell>
        <mxCell id="lCpcC6EXvAtzIv-ZnMlg-330" value="2" style="edgeLabel;html=1;align=center;verticalAlign=middle;resizable=0;points=[];" vertex="1" connectable="0" parent="lCpcC6EXvAtzIv-ZnMlg-329">
          <mxGeometry x="0.7128" relative="1" as="geometry">
            <mxPoint y="-12" as="offset" />
          </mxGeometry>
        </mxCell>
        <mxCell id="lCpcC6EXvAtzIv-ZnMlg-331" style="edgeStyle=orthogonalEdgeStyle;rounded=0;orthogonalLoop=1;jettySize=auto;html=1;exitX=1;exitY=0.5;exitDx=0;exitDy=0;exitPerimeter=0;entryX=0.5;entryY=0;entryDx=0;entryDy=0;" edge="1" parent="1" source="lCpcC6EXvAtzIv-ZnMlg-318" target="lCpcC6EXvAtzIv-ZnMlg-323">
          <mxGeometry relative="1" as="geometry" />
        </mxCell>
        <mxCell id="lCpcC6EXvAtzIv-ZnMlg-332" value="not 1 or 2" style="edgeLabel;html=1;align=center;verticalAlign=middle;resizable=0;points=[];" vertex="1" connectable="0" parent="lCpcC6EXvAtzIv-ZnMlg-331">
          <mxGeometry x="0.3131" y="2" relative="1" as="geometry">
            <mxPoint as="offset" />
          </mxGeometry>
        </mxCell>
        <mxCell id="lCpcC6EXvAtzIv-ZnMlg-318" value="if input" style="strokeWidth=2;html=1;shape=mxgraph.flowchart.decision;whiteSpace=wrap;" vertex="1" parent="1">
          <mxGeometry x="3260" y="790" width="100" height="100" as="geometry" />
        </mxCell>
        <mxCell id="lCpcC6EXvAtzIv-ZnMlg-319" value="" style="verticalLabelPosition=bottom;verticalAlign=top;html=1;shape=process;whiteSpace=wrap;rounded=1;size=0.14;arcSize=6;" vertex="1" parent="1">
          <mxGeometry x="3110" y="1010" width="120" height="60" as="geometry" />
        </mxCell>
        <mxCell id="lCpcC6EXvAtzIv-ZnMlg-320" value="CheckMyPaket" style="text;strokeColor=none;align=center;fillColor=none;html=1;verticalAlign=middle;whiteSpace=wrap;rounded=0;" vertex="1" parent="1">
          <mxGeometry x="3140" y="1025" width="60" height="30" as="geometry" />
        </mxCell>
        <mxCell id="lCpcC6EXvAtzIv-ZnMlg-321" value="" style="verticalLabelPosition=bottom;verticalAlign=top;html=1;shape=process;whiteSpace=wrap;rounded=1;size=0.14;arcSize=6;" vertex="1" parent="1">
          <mxGeometry x="3270" y="1010" width="100" height="60" as="geometry" />
        </mxCell>
        <mxCell id="lCpcC6EXvAtzIv-ZnMlg-322" value="UpdateStatus" style="text;strokeColor=none;align=center;fillColor=none;html=1;verticalAlign=middle;whiteSpace=wrap;rounded=0;" vertex="1" parent="1">
          <mxGeometry x="3290" y="1026" width="60" height="30" as="geometry" />
        </mxCell>
        <mxCell id="lCpcC6EXvAtzIv-ZnMlg-323" value="" style="verticalLabelPosition=bottom;verticalAlign=top;html=1;shape=process;whiteSpace=wrap;rounded=1;size=0.14;arcSize=6;" vertex="1" parent="1">
          <mxGeometry x="3420" y="1010" width="100" height="60" as="geometry" />
        </mxCell>
        <mxCell id="lCpcC6EXvAtzIv-ZnMlg-324" value="MenuKurir" style="text;strokeColor=none;align=center;fillColor=none;html=1;verticalAlign=middle;whiteSpace=wrap;rounded=0;" vertex="1" parent="1">
          <mxGeometry x="3440" y="1026" width="60" height="30" as="geometry" />
        </mxCell>
        <mxCell id="lCpcC6EXvAtzIv-ZnMlg-325" style="edgeStyle=orthogonalEdgeStyle;rounded=0;orthogonalLoop=1;jettySize=auto;html=1;entryX=0.5;entryY=0;entryDx=0;entryDy=0;entryPerimeter=0;" edge="1" parent="1" source="lCpcC6EXvAtzIv-ZnMlg-247" target="lCpcC6EXvAtzIv-ZnMlg-318">
          <mxGeometry relative="1" as="geometry" />
        </mxCell>
        <mxCell id="lCpcC6EXvAtzIv-ZnMlg-326" value="kurir" style="edgeLabel;html=1;align=center;verticalAlign=middle;resizable=0;points=[];" vertex="1" connectable="0" parent="lCpcC6EXvAtzIv-ZnMlg-325">
          <mxGeometry x="-0.2651" y="-1" relative="1" as="geometry">
            <mxPoint as="offset" />
          </mxGeometry>
        </mxCell>
        <mxCell id="lCpcC6EXvAtzIv-ZnMlg-342" value="" style="verticalLabelPosition=bottom;verticalAlign=top;html=1;shape=process;whiteSpace=wrap;rounded=1;size=0.14;arcSize=6;" vertex="1" parent="1">
          <mxGeometry x="675.62" y="1280" width="100" height="60" as="geometry" />
        </mxCell>
        <mxCell id="lCpcC6EXvAtzIv-ZnMlg-358" style="edgeStyle=orthogonalEdgeStyle;rounded=0;orthogonalLoop=1;jettySize=auto;html=1;exitX=0.5;exitY=1;exitDx=0;exitDy=0;" edge="1" parent="1" source="lCpcC6EXvAtzIv-ZnMlg-343" target="lCpcC6EXvAtzIv-ZnMlg-354">
          <mxGeometry relative="1" as="geometry" />
        </mxCell>
        <mxCell id="lCpcC6EXvAtzIv-ZnMlg-343" value="" style="verticalLabelPosition=bottom;verticalAlign=top;html=1;shape=process;whiteSpace=wrap;rounded=1;size=0.14;arcSize=6;" vertex="1" parent="1">
          <mxGeometry x="360" y="1270" width="100" height="60" as="geometry" />
        </mxCell>
        <mxCell id="lCpcC6EXvAtzIv-ZnMlg-344" value="" style="verticalLabelPosition=bottom;verticalAlign=top;html=1;shape=process;whiteSpace=wrap;rounded=1;size=0.14;arcSize=6;" vertex="1" parent="1">
          <mxGeometry x="80" y="1280" width="100" height="60" as="geometry" />
        </mxCell>
        <mxCell id="lCpcC6EXvAtzIv-ZnMlg-345" value="MenuUser" style="text;strokeColor=none;align=center;fillColor=none;html=1;verticalAlign=middle;whiteSpace=wrap;rounded=0;" vertex="1" parent="1">
          <mxGeometry x="695.62" y="1298" width="60" height="30" as="geometry" />
        </mxCell>
        <mxCell id="lCpcC6EXvAtzIv-ZnMlg-346" value="MenuAdmin" style="text;strokeColor=none;align=center;fillColor=none;html=1;verticalAlign=middle;whiteSpace=wrap;rounded=0;" vertex="1" parent="1">
          <mxGeometry x="380" y="1285" width="60" height="30" as="geometry" />
        </mxCell>
        <mxCell id="lCpcC6EXvAtzIv-ZnMlg-347" value="MenuKurir" style="text;strokeColor=none;align=center;fillColor=none;html=1;verticalAlign=middle;whiteSpace=wrap;rounded=0;" vertex="1" parent="1">
          <mxGeometry x="100" y="1295" width="60" height="30" as="geometry" />
        </mxCell>
        <mxCell id="lCpcC6EXvAtzIv-ZnMlg-348" value="MenuKurir Logic" style="text;strokeColor=none;align=center;fillColor=none;html=1;verticalAlign=middle;whiteSpace=wrap;rounded=0;" vertex="1" parent="1">
          <mxGeometry x="100" y="1230" width="60" height="30" as="geometry" />
        </mxCell>
        <mxCell id="lCpcC6EXvAtzIv-ZnMlg-353" style="edgeStyle=orthogonalEdgeStyle;rounded=0;orthogonalLoop=1;jettySize=auto;html=1;exitX=0.5;exitY=1;exitDx=0;exitDy=0;exitPerimeter=0;entryX=0.5;entryY=0;entryDx=0;entryDy=0;" edge="1" parent="1" source="lCpcC6EXvAtzIv-ZnMlg-349" target="lCpcC6EXvAtzIv-ZnMlg-351">
          <mxGeometry relative="1" as="geometry" />
        </mxCell>
        <mxCell id="lCpcC6EXvAtzIv-ZnMlg-349" value="&lt;div&gt;🚚 &amp;nbsp;MENU KURIR&lt;/div&gt;&lt;div&gt;&lt;span style=&quot;white-space:pre&quot; class=&quot;Apple-tab-span&quot;&gt;&#x9;&lt;/span&gt;1️⃣ &amp;nbsp;Lihat Assigned Paket&lt;/div&gt;&lt;div&gt;2️⃣ &amp;nbsp;Update Status Paket&quot;)&lt;/div&gt;&lt;div&gt;&lt;span style=&quot;white-space:pre&quot; class=&quot;Apple-tab-span&quot;&gt;&#x9;&lt;/span&gt;0️⃣ &amp;nbsp;Logout&lt;br&gt;&lt;/div&gt;" style="strokeWidth=2;html=1;shape=mxgraph.flowchart.display;whiteSpace=wrap;" vertex="1" parent="1">
          <mxGeometry x="30" y="1415" width="185" height="85" as="geometry" />
        </mxCell>
        <mxCell id="lCpcC6EXvAtzIv-ZnMlg-350" style="edgeStyle=orthogonalEdgeStyle;rounded=0;orthogonalLoop=1;jettySize=auto;html=1;exitX=0.5;exitY=1;exitDx=0;exitDy=0;entryX=0.536;entryY=0.01;entryDx=0;entryDy=0;entryPerimeter=0;" edge="1" parent="1" source="lCpcC6EXvAtzIv-ZnMlg-344" target="lCpcC6EXvAtzIv-ZnMlg-349">
          <mxGeometry relative="1" as="geometry" />
        </mxCell>
        <mxCell id="lCpcC6EXvAtzIv-ZnMlg-351" value="" style="verticalLabelPosition=bottom;verticalAlign=top;html=1;shape=process;whiteSpace=wrap;rounded=1;size=0.14;arcSize=6;" vertex="1" parent="1">
          <mxGeometry x="80" y="1570" width="100" height="60" as="geometry" />
        </mxCell>
        <mxCell id="lCpcC6EXvAtzIv-ZnMlg-352" value="MenuKurir" style="text;strokeColor=none;align=center;fillColor=none;html=1;verticalAlign=middle;whiteSpace=wrap;rounded=0;" vertex="1" parent="1">
          <mxGeometry x="100" y="1585" width="60" height="30" as="geometry" />
        </mxCell>
        <mxCell id="lCpcC6EXvAtzIv-ZnMlg-359" style="edgeStyle=orthogonalEdgeStyle;rounded=0;orthogonalLoop=1;jettySize=auto;html=1;exitX=0.5;exitY=1;exitDx=0;exitDy=0;exitPerimeter=0;entryX=0.5;entryY=0;entryDx=0;entryDy=0;" edge="1" parent="1" source="lCpcC6EXvAtzIv-ZnMlg-354" target="lCpcC6EXvAtzIv-ZnMlg-356">
          <mxGeometry relative="1" as="geometry" />
        </mxCell>
        <mxCell id="lCpcC6EXvAtzIv-ZnMlg-354" value="&lt;div&gt;🛠️ &amp;nbsp;MENU ADMIN&lt;/div&gt;&lt;div&gt;📦 &amp;nbsp;Paket&lt;/div&gt;&lt;div&gt;1️⃣ &amp;nbsp;Tambah Paket Baru&lt;/div&gt;&lt;div&gt;2️⃣ &amp;nbsp;Lihat Semua Paket&lt;/div&gt;&lt;div&gt;3️⃣ &amp;nbsp;Edit Paket&lt;/div&gt;&lt;div&gt;4️⃣ &amp;nbsp;Hapus Paket&lt;/div&gt;&lt;div&gt;🚚 &amp;nbsp;Kurir&lt;/div&gt;&lt;div&gt;5️⃣ &amp;nbsp;Tambah Kurir Baru&lt;/div&gt;&lt;div&gt;6️⃣ &amp;nbsp;Lihat Semua Kurir&lt;/div&gt;&lt;div&gt;7️⃣ &amp;nbsp;Edit Kurir&lt;/div&gt;&lt;div&gt;8️⃣ &amp;nbsp;Hapus Kurir&lt;/div&gt;&lt;div&gt;9️⃣ &amp;nbsp;Assign Paket ke Kurir&lt;/div&gt;&lt;div&gt;0️⃣ &amp;nbsp;Logout&lt;/div&gt;" style="strokeWidth=2;html=1;shape=mxgraph.flowchart.display;whiteSpace=wrap;" vertex="1" parent="1">
          <mxGeometry x="275" y="1360" width="270" height="260" as="geometry" />
        </mxCell>
        <mxCell id="lCpcC6EXvAtzIv-ZnMlg-355" value="MenuAdmin Logic" style="text;strokeColor=none;align=center;fillColor=none;html=1;verticalAlign=middle;whiteSpace=wrap;rounded=0;" vertex="1" parent="1">
          <mxGeometry x="380" y="1230" width="60" height="30" as="geometry" />
        </mxCell>
        <mxCell id="lCpcC6EXvAtzIv-ZnMlg-356" value="" style="verticalLabelPosition=bottom;verticalAlign=top;html=1;shape=process;whiteSpace=wrap;rounded=1;size=0.14;arcSize=6;" vertex="1" parent="1">
          <mxGeometry x="360" y="1660" width="100" height="60" as="geometry" />
        </mxCell>
        <mxCell id="lCpcC6EXvAtzIv-ZnMlg-357" value="MenuAdmin" style="text;strokeColor=none;align=center;fillColor=none;html=1;verticalAlign=middle;whiteSpace=wrap;rounded=0;" vertex="1" parent="1">
          <mxGeometry x="380" y="1675" width="60" height="30" as="geometry" />
        </mxCell>
        <mxCell id="lCpcC6EXvAtzIv-ZnMlg-360" value="MenuUser Logic" style="text;strokeColor=none;align=center;fillColor=none;html=1;verticalAlign=middle;whiteSpace=wrap;rounded=0;" vertex="1" parent="1">
          <mxGeometry x="695.62" y="1240" width="60" height="30" as="geometry" />
        </mxCell>
        <mxCell id="lCpcC6EXvAtzIv-ZnMlg-365" style="edgeStyle=orthogonalEdgeStyle;rounded=0;orthogonalLoop=1;jettySize=auto;html=1;exitX=0.5;exitY=1;exitDx=0;exitDy=0;exitPerimeter=0;entryX=0.5;entryY=0;entryDx=0;entryDy=0;" edge="1" parent="1" source="lCpcC6EXvAtzIv-ZnMlg-361" target="lCpcC6EXvAtzIv-ZnMlg-362">
          <mxGeometry relative="1" as="geometry" />
        </mxCell>
        <mxCell id="lCpcC6EXvAtzIv-ZnMlg-361" value="&lt;div&gt;📦 &amp;nbsp;SELAMAT DATANG, %s&lt;/div&gt;&lt;div&gt;&lt;span style=&quot;white-space:pre&quot; class=&quot;Apple-tab-span&quot;&gt;&#x9;&lt;/span&gt;Silakan pilih menu:&lt;/div&gt;&lt;div&gt;&lt;span style=&quot;white-space:pre&quot; class=&quot;Apple-tab-span&quot;&gt;&#x9;&lt;/span&gt;1️⃣ &amp;nbsp;Tambah Paket&lt;/div&gt;&lt;div&gt;2️⃣ &amp;nbsp;Cek Paket&lt;/div&gt;&lt;div&gt;0️⃣ &amp;nbsp;Logout&lt;/div&gt;" style="strokeWidth=2;html=1;shape=mxgraph.flowchart.display;whiteSpace=wrap;" vertex="1" parent="1">
          <mxGeometry x="601.25" y="1390" width="248.75" height="140" as="geometry" />
        </mxCell>
        <mxCell id="lCpcC6EXvAtzIv-ZnMlg-362" value="" style="verticalLabelPosition=bottom;verticalAlign=top;html=1;shape=process;whiteSpace=wrap;rounded=1;size=0.14;arcSize=6;" vertex="1" parent="1">
          <mxGeometry x="675.62" y="1610" width="100" height="60" as="geometry" />
        </mxCell>
        <mxCell id="lCpcC6EXvAtzIv-ZnMlg-363" value="MenuUser" style="text;strokeColor=none;align=center;fillColor=none;html=1;verticalAlign=middle;whiteSpace=wrap;rounded=0;" vertex="1" parent="1">
          <mxGeometry x="695.62" y="1628" width="60" height="30" as="geometry" />
        </mxCell>
        <mxCell id="lCpcC6EXvAtzIv-ZnMlg-366" style="edgeStyle=orthogonalEdgeStyle;rounded=0;orthogonalLoop=1;jettySize=auto;html=1;exitX=0.5;exitY=1;exitDx=0;exitDy=0;entryX=0.5;entryY=0;entryDx=0;entryDy=0;entryPerimeter=0;" edge="1" parent="1" source="lCpcC6EXvAtzIv-ZnMlg-342" target="lCpcC6EXvAtzIv-ZnMlg-361">
          <mxGeometry relative="1" as="geometry" />
        </mxCell>
      </root>
    </mxGraphModel>
  </diagram>
</mxfile>
